<svg width="24" height="29" viewBox="0 0 24 29" fill="none" xmlns="http://www.w3.org/2000/svg">
<path d="M14 6.84975C14 6.29747 13.5523 5.84975 13 5.84975C12.4477 5.84975 12 6.29747 12 6.84975H14ZM12 23.2291C12 23.7814 12.4477 24.2291 13 24.2291C13.5523 24.2291 14 23.7814 14 23.2291H12ZM12 6.84975V23.2291H14V6.84975H12Z" fill="#40BFFF"/>
<path d="M6 14.0394C5.44771 14.0394 5 14.4871 5 15.0394C5 15.5917 5.44771 16.0394 6 16.0394V14.0394ZM20 16.0394C20.5523 16.0394 21 15.5917 21 15.0394C21 14.4871 20.5523 14.0394 20 14.0394V16.0394ZM6 16.0394H20V14.0394H6V16.0394Z" fill="#40BFFF"/>
</svg>
