<svg width="32" height="32" viewBox="0 0 32 32" fill="none" xmlns="http://www.w3.org/2000/svg">
<path d="M16 20C17.4145 20 18.771 19.4381 19.7712 18.4379C20.7714 17.4377 21.3333 16.0811 21.3333 14.6666V6.66658C21.3333 5.2521 20.7714 3.89554 19.7712 2.89535C18.771 1.89515 17.4145 1.33325 16 1.33325C14.5855 1.33325 13.229 1.89515 12.2288 2.89535C11.2286 3.89554 10.6667 5.2521 10.6667 6.66658V14.6666C10.6667 16.0811 11.2286 17.4377 12.2288 18.4379C13.229 19.4381 14.5855 20 16 20ZM13.3333 6.66658C13.3333 5.95934 13.6143 5.28106 14.1144 4.78097C14.6145 4.28087 15.2928 3.99992 16 3.99992C16.7072 3.99992 17.3855 4.28087 17.8856 4.78097C18.3857 5.28106 18.6666 5.95934 18.6666 6.66658V14.6666C18.6666 15.3739 18.3857 16.0522 17.8856 16.5523C17.3855 17.0523 16.7072 17.3333 16 17.3333C15.2928 17.3333 14.6145 17.0523 14.1144 16.5523C13.6143 16.0522 13.3333 15.3739 13.3333 14.6666V6.66658ZM26.6666 14.6666C26.6666 14.313 26.5262 13.9739 26.2761 13.7238C26.0261 13.4738 25.6869 13.3333 25.3333 13.3333C24.9797 13.3333 24.6405 13.4738 24.3905 13.7238C24.1404 13.9739 24 14.313 24 14.6666C24 16.7884 23.1571 18.8232 21.6568 20.3235C20.1565 21.8238 18.1217 22.6666 16 22.6666C13.8783 22.6666 11.8434 21.8238 10.3431 20.3235C8.84286 18.8232 8.00001 16.7884 8.00001 14.6666C8.00001 14.313 7.85953 13.9739 7.60948 13.7238C7.35943 13.4738 7.0203 13.3333 6.66667 13.3333C6.31305 13.3333 5.97391 13.4738 5.72386 13.7238C5.47381 13.9739 5.33334 14.313 5.33334 14.6666C5.33569 17.263 6.28496 19.7694 8.0032 21.7159C9.72144 23.6624 12.0906 24.9154 14.6667 25.24V28H12C11.6464 28 11.3072 28.1404 11.0572 28.3905C10.8071 28.6405 10.6667 28.9797 10.6667 29.3333C10.6667 29.6869 10.8071 30.0261 11.0572 30.2761C11.3072 30.5262 11.6464 30.6666 12 30.6666H20C20.3536 30.6666 20.6927 30.5262 20.9428 30.2761C21.1928 30.0261 21.3333 29.6869 21.3333 29.3333C21.3333 28.9797 21.1928 28.6405 20.9428 28.3905C20.6927 28.1404 20.3536 28 20 28H17.3333V25.24C19.9093 24.9154 22.2785 23.6624 23.9968 21.7159C25.715 19.7694 26.6643 17.263 26.6666 14.6666Z" fill="#4D90FF"/>
</svg>
