<svg width="24" height="24" viewBox="0 0 24 24" fill="none" xmlns="http://www.w3.org/2000/svg">
<path d="M5.875 15.6667V14.75C5.39175 14.75 5 15.1604 5 15.6667H5.875ZM18.125 15.6667H19C19 15.1604 18.6083 14.75 18.125 14.75V15.6667ZM18.125 18.2333V19.15C18.6083 19.15 19 18.7396 19 18.2333H18.125ZM13.225 22.0833V23C13.7082 23 14.1 22.5896 14.1 22.0833H13.225ZM10.775 22.0833H9.9C9.9 22.5896 10.2918 23 10.775 23V22.0833ZM5.875 18.2333H5C5 18.7396 5.39175 19.15 5.875 19.15V18.2333ZM5.875 16.5833H18.125V14.75H5.875V16.5833ZM17.25 15.6667V18.2333H19V15.6667H17.25ZM18.125 17.3167C16.7702 17.3167 15.3653 17.6687 14.2709 18.4331C13.1505 19.2156 12.35 20.4444 12.35 22.0833H14.1C14.1 21.1556 14.5245 20.4594 15.2416 19.9585C15.9847 19.4396 17.0298 19.15 18.125 19.15V17.3167ZM13.225 21.1667H10.775V23H13.225V21.1667ZM11.65 22.0833C11.65 20.4444 10.8495 19.2156 9.72911 18.4331C8.63463 17.6687 7.2298 17.3167 5.875 17.3167V19.15C6.9702 19.15 8.01537 19.4396 8.75839 19.9585C9.47547 20.4594 9.9 21.1556 9.9 22.0833H11.65ZM6.75 18.2333V15.6667H5V18.2333H6.75Z" fill="#40BFFF"/>
<path d="M6.75 1.91667C6.75 1.41041 6.35825 1 5.875 1C5.39175 1 5 1.41041 5 1.91667H6.75ZM19 1.91667C19 1.41041 18.6083 1 18.125 1C17.6417 1 17.25 1.41041 17.25 1.91667H19ZM5 1.91667V6.80381H6.75V1.91667H5ZM5 6.80381C5 9.65621 7.16735 12 9.8783 12V10.1667C8.167 10.1667 6.75 8.67879 6.75 6.80381H5ZM9.8783 12H14.1205V10.1667H9.8783V12ZM14.1205 12C16.8324 12 19 9.65639 19 6.80381H17.25C17.25 8.67861 15.8332 10.1667 14.1205 10.1667V12ZM19 6.80381V1.91667H17.25V6.80381H19Z" fill="#40BFFF"/>
<path d="M5.875 4.66667C5.39175 4.66667 5 5.07708 5 5.58334C5 6.0896 5.39175 6.50001 5.875 6.50001V4.66667ZM12 11.0833L11.1479 11.2916C11.2489 11.7452 11.6585 12.0473 12.1001 11.994C12.5417 11.9407 12.875 11.549 12.875 11.0833H12ZM18.125 6.50001C18.6083 6.50001 19 6.0896 19 5.58334C19 5.07708 18.6083 4.66667 18.125 4.66667V6.50001ZM5.875 6.50001C7.95441 6.50001 9.24742 7.64564 10.0582 8.85901C10.467 9.47086 10.743 10.0887 10.9165 10.5562C11.0028 10.7886 11.0624 10.9802 11.0997 11.1104C11.1183 11.1754 11.1313 11.2248 11.1391 11.2559C11.1431 11.2715 11.1457 11.2825 11.1471 11.2885C11.1479 11.2916 11.1483 11.2934 11.1484 11.2939C11.1485 11.2942 11.1484 11.2941 11.1484 11.2937C11.1483 11.2935 11.1483 11.2933 11.1482 11.2929C11.1481 11.2928 11.1481 11.2924 11.148 11.2923C11.148 11.292 11.1479 11.2916 12 11.0833C12.8521 10.875 12.852 10.8746 12.8519 10.8742C12.8519 10.874 12.8518 10.8736 12.8517 10.8732C12.8516 10.8726 12.8514 10.8718 12.8512 10.8709C12.8508 10.8692 12.8503 10.8672 12.8498 10.8648C12.8487 10.86 12.8473 10.854 12.8455 10.8466C12.842 10.8318 12.8372 10.8119 12.831 10.7872C12.8185 10.7378 12.8003 10.669 12.7759 10.5836C12.727 10.413 12.6527 10.1749 12.5475 9.89172C12.3383 9.328 12.0017 8.57082 11.4918 7.80767C10.4651 6.27104 8.69559 4.66667 5.875 4.66667V6.50001ZM12 11.0833C12.875 11.0833 12.875 11.0838 12.875 11.0843C12.875 11.0845 12.875 11.0849 12.875 11.0852C12.875 11.0857 12.875 11.0862 12.875 11.0865C12.875 11.0873 12.875 11.0877 12.875 11.0878C12.875 11.0881 12.875 11.087 12.875 11.0848C12.8751 11.0803 12.8753 11.071 12.8758 11.0572C12.8769 11.0295 12.8791 10.984 12.8839 10.9231C12.8936 10.8011 12.9136 10.6197 12.9546 10.3989C13.0372 9.95391 13.2011 9.37051 13.5214 8.79522C14.1288 7.70452 15.3708 6.50001 18.125 6.50001V4.66667C14.7542 4.66667 12.9337 6.21215 12.0098 7.87146C11.5645 8.67117 11.3456 9.46276 11.2368 10.049C11.1821 10.3439 11.1542 10.5921 11.14 10.7709C11.1329 10.8604 11.1291 10.9331 11.1272 10.986C11.1262 11.0124 11.1256 11.034 11.1253 11.0503C11.1252 11.0585 11.1251 11.0653 11.1251 11.0709C11.125 11.0736 11.125 11.076 11.125 11.0781C11.125 11.0792 11.125 11.0801 11.125 11.081C11.125 11.0814 11.125 11.082 11.125 11.0822C11.125 11.0828 11.125 11.0833 12 11.0833Z" fill="#40BFFF"/>
</svg>
