<svg width="14" height="14" viewBox="0 0 14 14" fill="none" xmlns="http://www.w3.org/2000/svg">
<path d="M6.53001 0.313226C6.70415 -0.104441 7.29585 -0.104441 7.46999 0.313226L9.03885 4.07608C9.11221 4.25203 9.2777 4.37227 9.46771 4.38767L13.5312 4.71695C13.9822 4.7535 14.1651 5.31625 13.8217 5.61093L10.7278 8.26579C10.5831 8.38993 10.5199 8.58448 10.564 8.76995L11.5065 12.7363C11.6111 13.1766 11.1324 13.5244 10.746 13.2888L7.26505 11.1668C7.10228 11.0675 6.89772 11.0675 6.73495 11.1668L3.25396 13.2888C2.86758 13.5244 2.38889 13.1766 2.4935 12.7363L3.43602 8.76995C3.48009 8.58448 3.41688 8.38993 3.27221 8.26579L0.178326 5.61093C-0.165087 5.31625 0.0177597 4.7535 0.468797 4.71695L4.53229 4.38767C4.7223 4.37227 4.88779 4.25203 4.96115 4.07608L6.53001 0.313226Z" fill="#0061FF"/>
</svg>
