<svg width="24" height="24" viewBox="0 0 24 24" fill="none" xmlns="http://www.w3.org/2000/svg">
<path d="M14.025 6.93751L14.8788 6.6529C14.7563 6.28539 14.4123 6.03751 14.025 6.03751V6.93751ZM15.0375 9.97501L15.8913 10.2596C15.9529 10.0749 15.9529 9.87514 15.8913 9.6904L15.0375 9.97501ZM14.025 13.0125L13.1712 12.7279C13.0633 13.0513 13.1476 13.4078 13.3886 13.6489L14.025 13.0125ZM20.1 19.0875L20.5025 19.8925C20.7612 19.7631 20.942 19.5173 20.9884 19.2317C21.0347 18.9461 20.9409 18.6557 20.7364 18.4511L20.1 19.0875ZM3.90001 19.0875L3.26361 18.4511C3.05905 18.6557 2.96529 18.9461 3.01163 19.2317C3.05797 19.5173 3.23876 19.7631 3.49752 19.8925L3.90001 19.0875ZM9.975 13.0125L10.6114 13.6489C10.8524 13.4078 10.9366 13.0513 10.8288 12.7279L9.975 13.0125ZM8.9625 9.97501L8.10869 9.6904C8.0471 9.87514 8.0471 10.0749 8.10869 10.2596L8.9625 9.97501ZM9.975 6.93751V6.03751C9.58761 6.03751 9.24369 6.28539 9.12119 6.6529L9.975 6.93751ZM13.1712 7.22211L14.1837 10.2596L15.8913 9.6904L14.8788 6.6529L13.1712 7.22211ZM14.1837 9.6904L13.1712 12.7279L14.8788 13.2971L15.8913 10.2596L14.1837 9.6904ZM13.3886 13.6489L19.4636 19.7239L20.7364 18.4511L14.6614 12.3761L13.3886 13.6489ZM20.1 19.0875C19.6975 18.2825 19.6979 18.2823 19.6984 18.2821C19.6986 18.282 19.699 18.2817 19.6993 18.2816C19.6998 18.2814 19.7004 18.2811 19.7009 18.2808C19.7019 18.2803 19.7028 18.2799 19.7035 18.2795C19.7051 18.2788 19.706 18.2783 19.7066 18.278C19.7076 18.2776 19.7065 18.2781 19.7033 18.2796C19.697 18.2825 19.6822 18.289 19.6584 18.2988C19.6109 18.3184 19.5275 18.3508 19.404 18.3919C19.1572 18.4742 18.7505 18.5914 18.1516 18.7112C16.9532 18.9509 14.9883 19.2 12 19.2V21C15.0866 21 17.1717 20.7429 18.5046 20.4763C19.1714 20.3429 19.6506 20.2071 19.9733 20.0996C20.1346 20.0457 20.2568 19.999 20.3438 19.9632C20.3873 19.9453 20.4219 19.9302 20.4482 19.9182C20.4613 19.9123 20.4724 19.907 20.4814 19.9027C20.4859 19.9006 20.4899 19.8987 20.4935 19.897C20.4952 19.8961 20.4968 19.8953 20.4983 19.8945C20.499 19.8942 20.4998 19.8938 20.5005 19.8935C20.5008 19.8933 20.5013 19.8931 20.5015 19.893C20.502 19.8927 20.5025 19.8925 20.1 19.0875ZM12 19.2C9.01168 19.2 7.04677 18.9509 5.84839 18.7112C5.24947 18.5914 4.84278 18.4742 4.59594 18.3919C4.47253 18.3508 4.3891 18.3184 4.34156 18.2988C4.31779 18.289 4.30299 18.2825 4.29666 18.2796C4.29349 18.2781 4.29243 18.2776 4.29343 18.278C4.29393 18.2783 4.29494 18.2788 4.29645 18.2795C4.29721 18.2799 4.29809 18.2803 4.2991 18.2808C4.29961 18.2811 4.30014 18.2814 4.30071 18.2816C4.30099 18.2817 4.30144 18.282 4.30158 18.2821C4.30204 18.2823 4.3025 18.2825 3.90001 19.0875C3.49752 19.8925 3.498 19.8927 3.49848 19.893C3.49866 19.8931 3.49915 19.8933 3.4995 19.8935C3.50019 19.8938 3.50091 19.8942 3.50166 19.8945C3.50317 19.8953 3.5048 19.8961 3.50655 19.897C3.51006 19.8987 3.51407 19.9006 3.51858 19.9027C3.52761 19.907 3.53867 19.9123 3.55181 19.9182C3.5781 19.9302 3.61274 19.9453 3.65621 19.9632C3.74315 19.999 3.86537 20.0457 4.02673 20.0996C4.34942 20.2071 4.82867 20.3429 5.49537 20.4763C6.82823 20.7429 8.91331 21 12 21V19.2ZM4.5364 19.7239L10.6114 13.6489L9.3386 12.3761L3.26361 18.4511L4.5364 19.7239ZM10.8288 12.7279L9.81631 9.6904L8.10869 10.2596L9.12119 13.2971L10.8288 12.7279ZM9.81631 10.2596L10.8288 7.22211L9.12119 6.6529L8.10869 9.6904L9.81631 10.2596ZM9.975 7.83751H14.025V6.03751H9.975V7.83751Z" fill="#40BFFF"/>
<path d="M13.0123 6.9375L12.1585 6.65289C12.067 6.92735 12.113 7.22905 12.2822 7.46374C12.4513 7.69843 12.723 7.8375 13.0123 7.8375V6.9375ZM16.0498 6.9375V7.8375C16.4372 7.8375 16.7811 7.58961 16.9036 7.22211L16.0498 6.9375ZM17.0623 3.9L17.9161 4.18461C18.0076 3.91015 17.9616 3.60845 17.7924 3.37376C17.6233 3.13907 17.3516 3 17.0623 3V3.9ZM14.0248 3.9V3C13.6374 3 13.2935 3.24789 13.171 3.61539L14.0248 3.9ZM13.0123 7.8375H16.0498V6.0375H13.0123V7.8375ZM16.9036 7.22211L17.9161 4.18461L16.2085 3.61539L15.196 6.65289L16.9036 7.22211ZM17.0623 3H14.0248V4.8H17.0623V3ZM13.171 3.61539L12.1585 6.65289L13.8661 7.22211L14.8786 4.18461L13.171 3.61539Z" fill="#40BFFF"/>
<path d="M6.9376 3.9V3C6.6483 3 6.37664 3.13907 6.20748 3.37376C6.03833 3.60845 5.99231 3.91015 6.08379 4.18461L6.9376 3.9ZM9.97509 3.9L10.8289 3.61539C10.7064 3.24789 10.3625 3 9.97509 3V3.9ZM10.9876 6.9375V7.8375C11.2769 7.8375 11.5486 7.69843 11.7177 7.46374C11.8869 7.22905 11.9329 6.92735 11.8414 6.65289L10.9876 6.9375ZM7.9501 6.9375L7.09629 7.22211C7.21879 7.58961 7.56271 7.8375 7.9501 7.8375V6.9375ZM6.9376 4.8H9.97509V3H6.9376V4.8ZM9.12128 4.18461L10.1338 7.22211L11.8414 6.65289L10.8289 3.61539L9.12128 4.18461ZM10.9876 6.0375H7.9501V7.8375H10.9876V6.0375ZM8.80391 6.65289L7.79141 3.61539L6.08379 4.18461L7.09629 7.22211L8.80391 6.65289Z" fill="#40BFFF"/>
<path d="M9.97519 12.1125C9.47814 12.1125 9.0752 12.5154 9.0752 13.0125C9.0752 13.5095 9.47814 13.9125 9.97519 13.9125V12.1125ZM14.0252 13.9125C14.5222 13.9125 14.9252 13.5095 14.9252 13.0125C14.9252 12.5154 14.5222 12.1125 14.0252 12.1125V13.9125ZM9.97519 13.9125H14.0252V12.1125H9.97519V13.9125Z" fill="#40BFFF"/>
</svg>
