<svg width="24" height="24" viewBox="0 0 24 24" fill="none" xmlns="http://www.w3.org/2000/svg">
<path d="M19.0875 6.12097H19.9875C19.9875 5.63995 19.5846 5.25 19.0875 5.25V6.12097ZM4.9125 6.12097V5.25C4.41545 5.25 4.0125 5.63995 4.0125 6.12097H4.9125ZM4.9125 8.90273L5.80718 8.99724C5.81073 8.96585 5.8125 8.93431 5.8125 8.90273H4.9125ZM3.9 17.879L3.00532 17.7845C2.97758 18.0305 3.05925 18.2763 3.22997 18.4605C3.40068 18.6448 3.64431 18.75 3.9 18.75V17.879ZM8.9625 17.879V18.75C9.27863 18.75 9.57159 18.5895 9.73424 18.3271L8.9625 17.879ZM12 12.9798L12.7717 12.5317C12.6091 12.2694 12.3161 12.1089 12 12.1089C11.6839 12.1089 11.3909 12.2694 11.2283 12.5317L12 12.9798ZM15.0375 17.879L14.2657 18.3271C14.4284 18.5895 14.7213 18.75 15.0375 18.75V17.879ZM20.1 17.879V18.75C20.3559 18.75 20.5998 18.6445 20.7706 18.4599C20.9413 18.2753 21.0228 18.0291 20.9945 17.7829L20.1 17.879ZM19.0875 9.06048H18.1875C18.1875 9.09262 18.1893 9.12473 18.193 9.15666L19.0875 9.06048ZM19.0875 5.25H4.9125V6.99194H19.0875V5.25ZM4.0125 6.12097V8.90273H5.8125V6.12097H4.0125ZM4.01782 8.80822L3.00532 17.7845L4.79469 17.9735L5.80718 8.99724L4.01782 8.80822ZM3.9 18.75H8.9625V17.0081H3.9V18.75ZM9.73424 18.3271L12.7717 13.428L11.2283 12.5317L8.19076 17.4309L9.73424 18.3271ZM11.2283 13.428L14.2657 18.3271L15.8092 17.4309L12.7717 12.5317L11.2283 13.428ZM15.0375 18.75H20.1V17.0081H15.0375V18.75ZM20.9945 17.7829L19.982 8.9643L18.193 9.15666L19.2055 17.9752L20.9945 17.7829ZM19.9875 9.06048V6.12097H18.1875V9.06048H19.9875Z" fill="#40BFFF"/>
<path d="M4.91269 8.18951C4.41564 8.18951 4.0127 8.57946 4.0127 9.06048C4.0127 9.5415 4.41564 9.93145 4.91269 9.93145V8.18951ZM19.0877 9.93145C19.5848 9.93145 19.9877 9.5415 19.9877 9.06048C19.9877 8.57946 19.5848 8.18951 19.0877 8.18951V9.93145ZM4.91269 9.93145H19.0877V8.18951H4.91269V9.93145Z" fill="#40BFFF"/>
</svg>
