<svg width="24" height="24" viewBox="0 0 24 24" fill="none" xmlns="http://www.w3.org/2000/svg">
<path d="M7.90904 3V2C7.54337 2 7.20687 2.19959 7.03152 2.52047L7.90904 3ZM18.091 3L18.9685 2.52047C18.7931 2.19959 18.4566 2 18.091 2V3ZM20 23V24C20.3088 24 20.6003 23.8573 20.7897 23.6135C20.9792 23.3696 21.0453 23.0519 20.9689 22.7526L20 23ZM16.0839 23L15.1056 23.2074C15.2036 23.6695 15.6115 24 16.0839 24V23ZM13.0007 8.46L13.9789 8.25256C13.8809 7.79051 13.473 7.46002 13.0007 7.46C12.5284 7.45998 12.1205 7.79044 12.0224 8.25248L13.0007 8.46ZM9.91614 23V24C10.3884 24 10.7964 23.6695 10.8944 23.2075L9.91614 23ZM6.00001 23L5.03107 22.7527C4.95471 23.0519 5.02085 23.3696 5.21029 23.6135C5.39973 23.8573 5.69121 24 6.00001 24V23ZM14.5423 15.73L15.5205 15.5226L14.5423 15.73ZM7.90904 4H18.091V2H7.90904V4ZM18.091 3C17.2134 3.47953 17.2134 3.47942 17.2133 3.47932C17.2133 3.47931 17.2133 3.47922 17.2133 3.47918C17.2132 3.47912 17.2132 3.47909 17.2132 3.47912C17.2132 3.47916 17.2134 3.4794 17.2136 3.47981C17.2141 3.48065 17.2149 3.48221 17.2161 3.4845C17.2186 3.48907 17.2226 3.49651 17.2281 3.5067C17.239 3.52708 17.2556 3.55842 17.2771 3.59974C17.3202 3.68241 17.3828 3.80473 17.4585 3.95878C17.6101 4.26762 17.8121 4.70007 18.0135 5.19349C18.4316 6.21803 18.7877 7.36588 18.7877 8.21H20.7877C20.7877 6.94912 20.2955 5.49197 19.8652 4.43776C19.6424 3.89181 19.4202 3.41644 19.2537 3.07732C19.1703 2.90738 19.1004 2.77067 19.0507 2.67532C19.0258 2.62762 19.006 2.5902 18.992 2.56407C18.985 2.55101 18.9795 2.54076 18.9755 2.53345C18.9736 2.52979 18.972 2.52687 18.9708 2.5247C18.9702 2.52362 18.9697 2.52272 18.9693 2.52202C18.9691 2.52166 18.969 2.52136 18.9688 2.5211C18.9688 2.52097 18.9687 2.52081 18.9686 2.52075C18.9686 2.5206 18.9685 2.52047 18.091 3ZM18.7877 8.21C18.7877 8.42916 18.7419 8.70613 18.6421 9.09663C18.5371 9.50767 18.4132 9.90071 18.2582 10.4622C17.9635 11.5298 17.6566 12.8733 17.6566 14.5787H19.6566C19.6566 13.1255 19.9152 11.9759 20.1861 10.9944C20.3139 10.5313 20.4728 10.0108 20.5799 9.59169C20.6922 9.152 20.7877 8.68209 20.7877 8.21H18.7877ZM17.6566 14.5787C17.6566 16.2626 18.0099 18.4498 18.347 20.1666C18.5176 21.0355 18.6881 21.8035 18.816 22.3544C18.8799 22.6301 18.9334 22.8519 18.971 23.0055C18.9897 23.0823 19.0046 23.142 19.0148 23.1829C19.02 23.2034 19.0239 23.2191 19.0267 23.2299C19.028 23.2353 19.0291 23.2395 19.0298 23.2424C19.0302 23.2439 19.0305 23.245 19.0307 23.2458C19.0308 23.2463 19.0309 23.2466 19.0309 23.2468C19.031 23.247 19.031 23.2471 19.031 23.2472C19.0311 23.2473 19.0311 23.2474 20 23C20.9689 22.7526 20.9689 22.7527 20.9689 22.7527C20.9689 22.7526 20.9689 22.7525 20.9688 22.7522C20.9687 22.7518 20.9685 22.751 20.9682 22.7499C20.9677 22.7478 20.9668 22.7443 20.9656 22.7397C20.9633 22.7304 20.9597 22.7162 20.955 22.6973C20.9456 22.6596 20.9315 22.6032 20.9136 22.5299C20.8777 22.3834 20.8262 22.1694 20.7642 21.9023C20.6402 21.3678 20.4748 20.6227 20.3095 19.7812C19.9749 18.0771 19.6566 16.0537 19.6566 14.5787H17.6566ZM20 22H16.0839V24H20V22ZM12.0224 8.25248L8.93791 22.7925L10.8944 23.2075L13.9789 8.66752L12.0224 8.25248ZM9.91614 22H6.00001V24H9.91614V22ZM6.00001 23C6.96895 23.2473 6.96897 23.2472 6.969 23.2471C6.96901 23.247 6.96905 23.2469 6.96908 23.2468C6.96914 23.2465 6.96923 23.2462 6.96933 23.2458C6.96954 23.245 6.96983 23.2438 6.9702 23.2424C6.97094 23.2395 6.972 23.2353 6.97337 23.2299C6.9761 23.2191 6.98007 23.2033 6.98519 23.1829C6.99542 23.1419 7.01027 23.0822 7.02907 23.0054C7.06666 22.8518 7.12007 22.6299 7.18404 22.3542C7.3119 21.8032 7.48237 21.0351 7.653 20.1661C7.99009 18.4492 8.34345 16.262 8.34345 14.5787H6.34345C6.34345 16.053 6.02509 18.0764 5.69046 19.7808C5.52523 20.6224 5.35984 21.3676 5.2358 21.9022C5.17382 22.1693 5.12228 22.3833 5.0864 22.5299C5.06846 22.6032 5.05445 22.6596 5.045 22.6974C5.04028 22.7162 5.03671 22.7304 5.03436 22.7397C5.03318 22.7444 5.03231 22.7478 5.03176 22.75C5.03149 22.7511 5.03129 22.7518 5.03117 22.7523C5.03112 22.7525 5.03108 22.7527 5.03106 22.7527C5.03105 22.7528 5.03105 22.7528 5.03105 22.7528C5.03106 22.7528 5.03107 22.7527 6.00001 23ZM8.34345 14.5787C8.34345 12.8743 8.03663 11.5245 7.74204 10.4537C7.58659 9.88857 7.46339 9.49753 7.35774 9.0851C7.25754 8.69395 7.21227 8.42125 7.21227 8.21H5.21227C5.21227 8.67687 5.30841 9.14464 5.4203 9.58142C5.52674 9.99692 5.68634 10.5213 5.81368 10.9841C6.08468 11.9693 6.34345 13.1257 6.34345 14.5787H8.34345ZM7.21227 8.21C7.21227 7.36588 7.56838 6.21803 7.98652 5.19349C8.18789 4.70007 8.38992 4.26762 8.54156 3.95878C8.61719 3.80473 8.67981 3.68241 8.7229 3.59974C8.74444 3.55842 8.76106 3.52708 8.77195 3.5067C8.7774 3.49651 8.7814 3.48907 8.78387 3.4845C8.78511 3.48221 8.78596 3.48065 8.78641 3.47981C8.78664 3.4794 8.78677 3.47916 8.78679 3.47912C8.7868 3.47909 8.78679 3.47912 8.78675 3.47918C8.78673 3.47922 8.78669 3.47931 8.78668 3.47932C8.78662 3.47942 8.78656 3.47953 7.90904 3C7.03152 2.52047 7.03144 2.5206 7.03136 2.52075C7.03133 2.52081 7.03124 2.52097 7.03117 2.5211C7.03103 2.52136 7.03086 2.52166 7.03067 2.52202C7.03029 2.52272 7.0298 2.52362 7.02921 2.5247C7.02803 2.52687 7.02645 2.52979 7.02447 2.53345C7.02052 2.54076 7.015 2.55101 7.00802 2.56407C6.99405 2.5902 6.97422 2.62762 6.94936 2.67532C6.89966 2.77067 6.82972 2.90738 6.74628 3.07732C6.57977 3.41644 6.35761 3.89181 6.13479 4.43776C5.70455 5.49197 5.21227 6.94912 5.21227 8.21H7.21227ZM17.0621 22.7926L15.5205 15.5226L13.564 15.9374L15.1056 23.2074L17.0621 22.7926ZM15.5205 15.5226L13.9789 8.25256L12.0224 8.66744L13.564 15.9374L15.5205 15.5226Z" fill="#40BFFF"/>
</svg>
