<svg width="24" height="24" viewBox="0 0 24 24" fill="none" xmlns="http://www.w3.org/2000/svg">
<path d="M16.2857 8.36364C16.2857 10.874 14.3669 12.9091 12 12.9091V14.7273C15.3137 14.7273 18 11.8782 18 8.36364H16.2857ZM12 12.9091C9.63307 12.9091 7.71429 10.874 7.71429 8.36364H6C6 11.8782 8.68629 14.7273 12 14.7273V12.9091ZM7.71429 8.36364C7.71429 5.85325 9.63307 3.81818 12 3.81818V2C8.68629 2 6 4.8491 6 8.36364H7.71429ZM12 3.81818C14.3669 3.81818 16.2857 5.85325 16.2857 8.36364H18C18 4.8491 15.3137 2 12 2V3.81818Z" fill="#40BFFF"/>
<path d="M12.8569 13.8182C12.8569 13.3161 12.4731 12.9091 11.9997 12.9091C11.5263 12.9091 11.1426 13.3161 11.1426 13.8182H12.8569ZM11.1426 21.0909C11.1426 21.593 11.5263 22 11.9997 22C12.4731 22 12.8569 21.593 12.8569 21.0909H11.1426ZM11.1426 13.8182V21.0909H12.8569V13.8182H11.1426Z" fill="#40BFFF"/>
<path d="M9.42843 16.5454C8.95504 16.5454 8.57129 16.9525 8.57129 17.4545C8.57129 17.9566 8.95504 18.3636 9.42843 18.3636V16.5454ZM14.5713 18.3636C15.0447 18.3636 15.4284 17.9566 15.4284 17.4545C15.4284 16.9525 15.0447 16.5454 14.5713 16.5454V18.3636ZM9.42843 18.3636H14.5713V16.5454H9.42843V18.3636Z" fill="#40BFFF"/>
</svg>
