<svg width="24" height="24" viewBox="0 0 24 24" fill="none" xmlns="http://www.w3.org/2000/svg">
<path d="M3.9 5.925V5.025C3.40294 5.025 3 5.42795 3 5.925H3.9ZM20.1 5.925H21C21 5.42795 20.5971 5.025 20.1 5.025V5.925ZM20.1 20.1V21C20.5971 21 21 20.5971 21 20.1H20.1ZM3.9 20.1H3C3 20.5971 3.40294 21 3.9 21V20.1ZM3.9 10.0875C3.40294 10.0875 3 10.4904 3 10.9875C3 11.4846 3.40294 11.8875 3.9 11.8875V10.0875ZM20.1 11.8875C20.5971 11.8875 21 11.4846 21 10.9875C21 10.4904 20.5971 10.0875 20.1 10.0875V11.8875ZM15.15 7.95C15.15 8.44705 15.5529 8.85 16.05 8.85C16.5471 8.85 16.95 8.44705 16.95 7.95H15.15ZM16.95 3.9C16.95 3.40294 16.5471 3 16.05 3C15.5529 3 15.15 3.40294 15.15 3.9H16.95ZM7.05 7.95C7.05 8.44705 7.45295 8.85 7.95 8.85C8.44705 8.85 8.85 8.44705 8.85 7.95H7.05ZM8.85 3.9C8.85 3.40294 8.44705 3 7.95 3C7.45295 3 7.05 3.40294 7.05 3.9H8.85ZM3.9 6.825H20.1V5.025H3.9V6.825ZM19.2 5.925V20.1H21V5.925H19.2ZM20.1 19.2H3.9V21H20.1V19.2ZM4.8 20.1V5.925H3V20.1H4.8ZM3.9 11.8875H20.1V10.0875H3.9V11.8875ZM16.95 7.95V3.9H15.15V7.95H16.95ZM8.85 7.95V3.9H7.05V7.95H8.85Z" fill="#40BFFF"/>
</svg>
