<svg width="24" height="24" viewBox="0 0 24 24" fill="none" xmlns="http://www.w3.org/2000/svg">
<path d="M17.175 10.9875C17.175 14.4048 14.4048 17.175 10.9875 17.175V18.975C15.3989 18.975 18.975 15.3989 18.975 10.9875H17.175ZM10.9875 17.175C7.57024 17.175 4.8 14.4048 4.8 10.9875H3C3 15.3989 6.57612 18.975 10.9875 18.975V17.175ZM4.8 10.9875C4.8 7.57024 7.57024 4.8 10.9875 4.8V3C6.57612 3 3 6.57612 3 10.9875H4.8ZM10.9875 4.8C14.4048 4.8 17.175 7.57024 17.175 10.9875H18.975C18.975 6.57612 15.3989 3 10.9875 3V4.8Z" fill="#9098B1"/>
<path d="M16.6864 15.4136C16.3349 15.0622 15.7651 15.0622 15.4136 15.4136C15.0622 15.7651 15.0622 16.3349 15.4136 16.6864L16.6864 15.4136ZM19.4636 20.7364C19.8151 21.0879 20.3849 21.0879 20.7364 20.7364C21.0879 20.3849 21.0879 19.8151 20.7364 19.4636L19.4636 20.7364ZM15.4136 16.6864L19.4636 20.7364L20.7364 19.4636L16.6864 15.4136L15.4136 16.6864Z" fill="#9098B1"/>
</svg>
