<svg width="24" height="24" viewBox="0 0 24 24" fill="none" xmlns="http://www.w3.org/2000/svg">
<path d="M20.1 20.1V21C20.3646 21 20.6157 20.8836 20.7867 20.6817C20.9577 20.4799 21.0312 20.213 20.9878 19.952L20.1 20.1ZM3.90001 20.1L3.01225 19.952C2.96876 20.213 3.04229 20.4799 3.21329 20.6817C3.38429 20.8836 3.63545 21 3.90001 21V20.1ZM20.1 19.2H3.90001V21H20.1V19.2ZM4.78776 20.2479L6.43674 10.3541L4.66123 10.0581L3.01225 19.952L4.78776 20.2479ZM8.21225 8.84999H15.7877V7.04999H8.21225V8.84999ZM17.5633 10.3541L19.2122 20.2479L20.9878 19.952L19.3388 10.0581L17.5633 10.3541ZM15.7877 8.84999C16.6677 8.84999 17.4186 9.48613 17.5633 10.3541L19.3388 10.0581C19.0494 8.32227 17.5476 7.04999 15.7877 7.04999V8.84999ZM6.43674 10.3541C6.58139 9.48613 7.33233 8.84999 8.21225 8.84999V7.04999C6.45243 7.04999 4.95054 8.32227 4.66123 10.0581L6.43674 10.3541Z" fill="#40BFFF"/>
<path d="M5.93428 10.9735C5.43725 10.9683 5.03013 11.367 5.02495 11.8641C5.01977 12.3611 5.4185 12.7682 5.91553 12.7734L5.93428 10.9735ZM18.0655 12.9C18.5625 12.9051 18.9697 12.5064 18.9748 12.0094C18.98 11.5124 18.5813 11.1052 18.0843 11.1001L18.0655 12.9ZM5.91553 12.7734L18.0655 12.9L18.0843 11.1001L5.93428 10.9735L5.91553 12.7734Z" fill="#40BFFF"/>
<path d="M7.5 7.02154C7.5 7.51859 7.90294 7.92154 8.4 7.92154C8.89706 7.92154 9.3 7.51859 9.3 7.02154H7.5ZM14.7 7.05C14.7 7.54705 15.1029 7.95 15.6 7.95C16.0971 7.95 16.5 7.54705 16.5 7.05H14.7ZM9.3 7.02154V6.9375H7.5V7.02154H9.3ZM9.3 6.9375C9.3 5.75684 10.2568 4.8 11.4375 4.8V3C9.26273 3 7.5 4.76273 7.5 6.9375H9.3ZM11.4375 4.8H12.7456V3H11.4375V4.8ZM12.7456 4.8C13.6746 4.8 14.7 5.78718 14.7 7.05H16.5C16.5 4.95739 14.8254 3 12.7456 3V4.8Z" fill="#40BFFF"/>
</svg>
