<svg width="24" height="24" viewBox="0 0 24 24" fill="none" xmlns="http://www.w3.org/2000/svg">
<path d="M3.9 3.9V3C3.40294 3 3 3.40294 3 3.9H3.9ZM20.1 3.9H21C21 3.40294 20.5971 3 20.1 3V3.9ZM20.1 20.1V21C20.5971 21 21 20.5971 21 20.1H20.1ZM3.9 20.1H3C3 20.5971 3.40294 21 3.9 21V20.1ZM3.9 4.8H20.1V3H3.9V4.8ZM19.2 3.9V20.1H21V3.9H19.2ZM20.1 19.2H3.9V21H20.1V19.2ZM4.8 20.1V3.9H3V20.1H4.8Z" fill="#40BFFF"/>
<path d="M8.9625 7.05C8.46544 7.05 8.0625 7.45295 8.0625 7.95C8.0625 8.44706 8.46544 8.85 8.9625 8.85V7.05ZM15.0375 8.85C15.5346 8.85 15.9375 8.44706 15.9375 7.95C15.9375 7.45295 15.5346 7.05 15.0375 7.05V8.85ZM8.9625 8.85H15.0375V7.05H8.9625V8.85Z" fill="#40BFFF"/>
<path d="M8.9625 11.1C8.46544 11.1 8.0625 11.5029 8.0625 12C8.0625 12.4971 8.46544 12.9 8.9625 12.9V11.1ZM15.0375 12.9C15.5346 12.9 15.9375 12.4971 15.9375 12C15.9375 11.5029 15.5346 11.1 15.0375 11.1V12.9ZM8.9625 12.9H15.0375V11.1H8.9625V12.9Z" fill="#40BFFF"/>
<path d="M8.9625 15.15C8.46544 15.15 8.0625 15.5529 8.0625 16.05C8.0625 16.5471 8.46544 16.95 8.9625 16.95V15.15ZM15.0375 16.95C15.5346 16.95 15.9375 16.5471 15.9375 16.05C15.9375 15.5529 15.5346 15.15 15.0375 15.15V16.95ZM8.9625 16.95H15.0375V15.15H8.9625V16.95Z" fill="#40BFFF"/>
</svg>
