<svg width="24" height="24" viewBox="0 0 24 24" fill="none" xmlns="http://www.w3.org/2000/svg">
<path fill-rule="evenodd" clip-rule="evenodd" d="M12 4.00056C10.3971 4.00056 9.09766 5.3 9.09766 6.90294C9.09766 8.50588 10.3971 9.80532 12 9.80532C13.603 9.80532 14.9024 8.50588 14.9024 6.90294C14.9024 5.3 13.603 4.00056 12 4.00056ZM7.09766 6.90294C7.09766 4.19543 9.29253 2.00056 12 2.00056C14.7075 2.00056 16.9024 4.19543 16.9024 6.90294C16.9024 9.61045 14.7075 11.8053 12 11.8053C9.29253 11.8053 7.09766 9.61045 7.09766 6.90294Z" fill="#40BFFF"/>
<path fill-rule="evenodd" clip-rule="evenodd" d="M9.51784 15.3905C6.47035 15.3905 4 17.8608 4 20.9083V20.9994C4 21.5517 3.55228 21.9994 3 21.9994C2.44771 21.9994 2 21.5517 2 20.9994V20.9083C2 16.7562 5.36578 13.3905 9.51784 13.3905H14.4822C18.6342 13.3905 22 16.7562 22 20.9083V20.9994C22 21.5517 21.5523 21.9994 21 21.9994C20.4477 21.9994 20 21.5517 20 20.9994V20.9083C20 17.8608 17.5296 15.3905 14.4822 15.3905H9.51784Z" fill="#40BFFF"/>
</svg>
