<svg width="24" height="24" viewBox="0 0 24 24" fill="none" xmlns="http://www.w3.org/2000/svg">
<path d="M3.36379 9.14796C2.96461 9.44381 2.8811 10.0069 3.17727 10.4056C3.47344 10.8044 4.03713 10.8878 4.43631 10.592L3.36379 9.14796ZM12 3.8668L12.5363 3.14479C12.2178 2.90877 11.7822 2.90877 11.4637 3.14479L12 3.8668ZM19.5637 10.592C19.9629 10.8878 20.5265 10.8044 20.8227 10.4056C21.1189 10.0069 21.0354 9.44381 20.6362 9.14796L19.5637 10.592ZM4.43631 10.592L12.5363 4.5888L11.4637 3.14479L3.36379 9.14796L4.43631 10.592ZM11.4637 4.5888L19.5637 10.592L20.6362 9.14796L12.5363 3.14479L11.4637 4.5888Z" fill="#40BFFF"/>
<path d="M20.9999 9.86985C20.9999 9.37333 20.5969 8.97083 20.0999 8.97083C19.6028 8.97083 19.1999 9.37333 19.1999 9.86985H20.9999ZM20.0999 19.8751V20.7741C20.5969 20.7741 20.9999 20.3716 20.9999 19.8751H20.0999ZM3.89999 19.8751H3C3 20.3716 3.40294 20.7741 3.89999 20.7741V19.8751ZM4.79999 9.86985C4.79999 9.37333 4.39705 8.97083 3.89999 8.97083C3.40294 8.97083 3 9.37333 3 9.86985H4.79999ZM19.1999 9.86985V19.8751H20.9999V9.86985H19.1999ZM20.0999 18.9761H3.89999V20.7741H20.0999V18.9761ZM4.79999 19.8751V9.86985H3V19.8751H4.79999Z" fill="#40BFFF"/>
<path d="M9.97494 13.8719V12.9729C9.47789 12.9729 9.07495 13.3754 9.07495 13.8719H9.97494ZM14.0249 13.8719H14.9249C14.9249 13.3754 14.522 12.9729 14.0249 12.9729V13.8719ZM14.0249 19.8751V20.7741C14.522 20.7741 14.9249 20.3716 14.9249 19.8751H14.0249ZM9.97494 19.8751H9.07495C9.07495 20.3716 9.47789 20.7741 9.97494 20.7741V19.8751ZM9.97494 14.771H14.0249V12.9729H9.97494V14.771ZM13.1249 13.8719V19.8751H14.9249V13.8719H13.1249ZM14.0249 18.9761H9.97494V20.7741H14.0249V18.9761ZM10.8749 19.8751V13.8719H9.07495V19.8751H10.8749Z" fill="#40BFFF"/>
</svg>
