<svg width="24" height="24" viewBox="0 0 24 24" fill="none" xmlns="http://www.w3.org/2000/svg">
<path d="M3.9 6.12097V5.25C3.40294 5.25 3 5.63995 3 6.12097H3.9ZM20.1 6.12097H21C21 5.63995 20.5971 5.25 20.1 5.25V6.12097ZM20.1 17.879V18.75C20.5971 18.75 21 18.3601 21 17.879H20.1ZM3.9 17.879H3C3 18.3601 3.40294 18.75 3.9 18.75V17.879ZM3.9 6.99194H20.1V5.25H3.9V6.99194ZM19.2 6.12097V17.879H21V6.12097H19.2ZM20.1 17.0081H3.9V18.75H20.1V17.0081ZM4.8 17.879V6.12097H3V17.879H4.8Z" fill="#40BFFF"/>
<path d="M3.9 9.16936C3.40294 9.16936 3 9.5593 3 10.0403C3 10.5213 3.40294 10.9113 3.9 10.9113V9.16936ZM20.1 10.9113C20.5971 10.9113 21 10.5213 21 10.0403C21 9.5593 20.5971 9.16936 20.1 9.16936V10.9113ZM3.9 10.9113H20.1V9.16936H3.9V10.9113Z" fill="#40BFFF"/>
</svg>
