<svg width="24" height="24" viewBox="0 0 24 24" fill="none" xmlns="http://www.w3.org/2000/svg">
<path d="M19.1999 16.043C19.1999 16.54 19.6029 16.943 20.0999 16.943C20.597 16.943 20.9999 16.54 20.9999 16.043H19.1999ZM20.0999 9.9574H20.9999C20.9999 9.46035 20.597 9.0574 20.0999 9.0574V9.9574ZM14.0711 9.0574C13.5741 9.0574 13.1711 9.46035 13.1711 9.9574C13.1711 10.4545 13.5741 10.8574 14.0711 10.8574V9.0574ZM20.9999 16.043V9.9574H19.1999V16.043H20.9999ZM20.0999 9.0574H14.0711V10.8574H20.0999V9.0574Z" fill="#40BFFF"/>
<path d="M20.7362 10.5938C21.0876 10.2423 21.0876 9.67248 20.7362 9.32101C20.3847 8.96954 19.8148 8.96954 19.4634 9.32101L20.7362 10.5938ZM9.32073 19.4636C8.96926 19.8151 8.96926 20.385 9.32073 20.7364C9.6722 21.0879 10.2421 21.0879 10.5935 20.7364L9.32073 19.4636ZM19.4634 9.32101L9.32073 19.4636L10.5935 20.7364L20.7362 10.5938L19.4634 9.32101Z" fill="#40BFFF"/>
<path d="M4.8 7.95702C4.8 7.45996 4.39706 7.05702 3.9 7.05702C3.40294 7.05702 3 7.45996 3 7.95702H4.8ZM3.9 14.0426H3C3 14.5397 3.40294 14.9426 3.9 14.9426V14.0426ZM9.92778 14.9426C10.4248 14.9426 10.8278 14.5397 10.8278 14.0426C10.8278 13.5455 10.4248 13.1426 9.92778 13.1426V14.9426ZM3 7.95702V14.0426H4.8V7.95702H3ZM3.9 14.9426H9.92778V13.1426H3.9V14.9426Z" fill="#40BFFF"/>
<path d="M3.2636 13.4062C2.91213 13.7577 2.91213 14.3276 3.2636 14.679C3.61507 15.0305 4.18492 15.0305 4.5364 14.679L3.2636 13.4062ZM14.679 4.53639C15.0305 4.18492 15.0305 3.61507 14.679 3.2636C14.3276 2.91213 13.7577 2.91213 13.4062 3.2636L14.679 4.53639ZM4.5364 14.679L14.679 4.53639L13.4062 3.2636L3.2636 13.4062L4.5364 14.679Z" fill="#40BFFF"/>
</svg>
