<svg width="24" height="24" viewBox="0 0 24 24" fill="none" xmlns="http://www.w3.org/2000/svg">
<path d="M17.7071 9.70711C18.0976 9.31658 18.0976 8.68342 17.7071 8.29289C17.3166 7.90237 16.6834 7.90237 16.2929 8.29289L17.7071 9.70711ZM13 13L12.2929 13.7071C12.6834 14.0976 13.3166 14.0976 13.7071 13.7071L13 13ZM9.70711 8.29289C9.31658 7.90237 8.68342 7.90237 8.29289 8.29289C7.90237 8.68342 7.90237 9.31658 8.29289 9.70711L9.70711 8.29289ZM16.2929 8.29289L12.2929 12.2929L13.7071 13.7071L17.7071 9.70711L16.2929 8.29289ZM13.7071 12.2929L9.70711 8.29289L8.29289 9.70711L12.2929 13.7071L13.7071 12.2929Z" fill="#9098B1"/>
</svg>
