<svg width="24" height="24" viewBox="0 0 24 24" fill="none" xmlns="http://www.w3.org/2000/svg">
<path d="M8.9625 3.89999V3C8.63826 3 8.33908 3.17441 8.17932 3.45656C8.01956 3.73872 8.02394 4.08499 8.19076 4.36303L8.9625 3.89999ZM15.0375 3.89999L15.8092 4.36303C15.9761 4.08499 15.9804 3.73872 15.8207 3.45656C15.6609 3.17441 15.3617 3 15.0375 3V3.89999ZM12 8.96242L11.2283 9.42546C11.3909 9.69654 11.6839 9.86241 12 9.86241C12.3161 9.86241 12.6091 9.69654 12.7717 9.42546L12 8.96242ZM8.9625 4.79998H15.0375V3H8.9625V4.79998ZM14.2658 3.43695L11.2283 8.49938L12.7717 9.42546L15.8092 4.36303L14.2658 3.43695ZM12.7717 8.49938L9.73424 3.43695L8.19076 4.36303L11.2283 9.42546L12.7717 8.49938Z" fill="#40BFFF"/>
<path d="M15.6739 3.2636C15.3224 2.91213 14.7526 2.91213 14.4011 3.2636C14.0496 3.61507 14.0496 4.18491 14.4011 4.53637L15.6739 3.2636ZM17.0625 5.92496L17.9163 6.20956C18.0241 5.88616 17.9399 5.52962 17.6989 5.28857L17.0625 5.92496ZM15.0375 11.9999L14.4011 12.6363C14.6216 12.8568 14.9407 12.9475 15.2442 12.8758C15.5478 12.8041 15.7927 12.5804 15.8913 12.2845L15.0375 11.9999ZM12.6364 8.32603C12.2849 7.97457 11.7151 7.97457 11.3636 8.32603C11.0121 8.6775 11.0121 9.24734 11.3636 9.59881L12.6364 8.32603ZM14.4011 4.53637L16.4261 6.56135L17.6989 5.28857L15.6739 3.2636L14.4011 4.53637ZM16.2087 5.64036L14.1837 11.7153L15.8913 12.2845L17.9163 6.20956L16.2087 5.64036ZM15.6739 11.3635L12.6364 8.32603L11.3636 9.59881L14.4011 12.6363L15.6739 11.3635Z" fill="#40BFFF"/>
<path d="M7.22211 6.779C7.69365 6.62182 7.9485 6.11214 7.79131 5.64059C7.63414 5.16905 7.12445 4.91421 6.65289 5.07139L7.22211 6.779ZM3.9 6.93768L3.61539 6.08388C3.24789 6.20638 3 6.5503 3 6.93768H3.9ZM3.9 20.1H3C3 20.5971 3.40294 21 3.9 21V20.1ZM20.1 20.1V21C20.5971 21 21 20.5971 21 20.1H20.1ZM20.1 6.93768H21C21 6.5503 20.7521 6.20638 20.3846 6.08388L20.1 6.93768ZM17.3471 5.07139C16.8756 4.91421 16.3659 5.16905 16.2087 5.64059C16.0515 6.11214 16.3063 6.62182 16.7779 6.779L17.3471 5.07139ZM6.65289 5.07139L3.61539 6.08388L4.18461 7.79148L7.22211 6.779L6.65289 5.07139ZM3 6.93768V20.1H4.8V6.93768H3ZM3.9 21H20.1V19.2H3.9V21ZM21 20.1V6.93768H19.2V20.1H21ZM20.3846 6.08388L17.3471 5.07139L16.7779 6.779L19.8154 7.79148L20.3846 6.08388Z" fill="#40BFFF"/>
<path d="M11.1 20.0998C11.1 20.5968 11.5029 20.9998 12 20.9998C12.4971 20.9998 12.9 20.5968 12.9 20.0998H11.1ZM12 8.96242H12.9C12.9 8.59841 12.6807 8.27024 12.3444 8.13094C12.0081 7.99164 11.621 8.06864 11.3636 8.32603L12 8.96242ZM8.9625 11.9999L8.10869 12.2845C8.20732 12.5804 8.45215 12.8041 8.75572 12.8758C9.05929 12.9475 9.37834 12.8568 9.5989 12.6363L8.9625 11.9999ZM6.9375 5.92496L6.3011 5.28857C6.06005 5.52962 5.97589 5.88616 6.08368 6.20956L6.9375 5.92496ZM9.5989 4.53637C9.95037 4.18491 9.95037 3.61507 9.5989 3.2636C9.24742 2.91213 8.67758 2.91213 8.3261 3.2636L9.5989 4.53637ZM12.9 20.0998V8.96242H11.1V20.0998H12.9ZM11.3636 8.32603L8.3261 11.3635L9.5989 12.6363L12.6364 9.59881L11.3636 8.32603ZM9.81631 11.7153L7.79131 5.64036L6.08368 6.20956L8.10869 12.2845L9.81631 11.7153ZM7.5739 6.56135L9.5989 4.53637L8.3261 3.2636L6.3011 5.28857L7.5739 6.56135Z" fill="#40BFFF"/>
</svg>
