<svg width="32" height="32" viewBox="0 0 32 32" fill="none" xmlns="http://www.w3.org/2000/svg">
<path d="M25.8663 17.3334C25.5996 17.3334 25.333 17.2 24.933 17.2C24.3996 17.0667 23.733 16.9334 23.1996 16.6667C21.8663 16.2667 20.533 16.8 19.8663 18L19.5996 18.6667C16.933 17.2 14.7996 15.0667 13.333 12.4001L13.9996 12.0001C15.1996 11.4667 15.8663 10.0001 15.333 8.66675C15.0663 8.13342 14.933 7.46675 14.7996 6.93342C14.7996 6.66675 14.6663 6.40008 14.6663 6.00008C14.3996 4.13342 12.6663 2.66675 10.6663 2.66675H6.66633C5.46633 2.66675 4.39966 3.20008 3.733 4.00008C2.933 4.93342 2.66633 6.13342 2.79966 7.33342C3.46633 12.9334 5.99966 18 9.99966 22C13.9996 26 19.1996 28.5334 24.6663 29.2C25.8663 29.3334 26.933 28.9334 27.8663 28.2667C28.6663 27.4667 29.1996 26.4 29.1996 25.3334V21.3334C29.1996 19.2 27.8663 17.6 25.8663 17.3334Z" fill="white"/>
</svg>
