<svg width="29" height="21" viewBox="0 0 29 21" fill="none" xmlns="http://www.w3.org/2000/svg">
<path d="M5.09787 8.35549C3.9135 7.19686 2.01412 7.21773 0.8555 8.40211C-0.303129 9.58648 -0.282259 11.4859 0.90212 12.6445L5.09787 8.35549ZM10.6667 18L8.56877 20.1445C9.73479 21.2852 11.5985 21.2852 12.7645 20.1445L10.6667 18ZM28.0979 5.14449C29.2823 3.98587 29.3031 2.08649 28.1445 0.90212C26.9859 -0.282259 25.0865 -0.303129 23.9021 0.8555L28.0979 5.14449ZM0.90212 12.6445L8.56877 20.1445L12.7645 15.8555L5.09787 8.35549L0.90212 12.6445ZM12.7645 20.1445L28.0979 5.14449L23.9021 0.8555L8.56877 15.8555L12.7645 20.1445Z" fill="white"/>
</svg>
