<svg width="24" height="24" viewBox="0 0 24 24" fill="none" xmlns="http://www.w3.org/2000/svg">
<path d="M8.56875 20.7742C8.84834 20.7742 9.075 20.525 9.075 20.2177C9.075 19.9104 8.84834 19.6613 8.56875 19.6613C8.28916 19.6613 8.0625 19.9104 8.0625 20.2177C8.0625 20.525 8.28916 20.7742 8.56875 20.7742Z" fill="#9098B1" stroke="#9098B1" stroke-width="2" stroke-linecap="round" stroke-linejoin="round"/>
<path d="M15.6563 20.7742C15.9359 20.7742 16.1625 20.525 16.1625 20.2177C16.1625 19.9104 15.9359 19.6613 15.6563 19.6613C15.3767 19.6613 15.15 19.9104 15.15 20.2177C15.15 20.525 15.3767 20.7742 15.6563 20.7742Z" fill="#9098B1" stroke="#9098B1" stroke-width="2" stroke-linecap="round" stroke-linejoin="round"/>
<path d="M3.9 2.96777C3.40294 2.96777 3 3.41549 3 3.96778C3 4.52007 3.40294 4.96779 3.9 4.96779V2.96777ZM5.925 3.96778L6.81248 3.80164C6.73949 3.32025 6.36435 2.96777 5.925 2.96777V3.96778ZM7.94999 17.3227L7.0625 17.4889C7.13549 17.9703 7.51064 18.3227 7.94999 18.3227V17.3227ZM18.075 17.3227V18.3227C18.496 18.3227 18.8608 17.9984 18.9531 17.5419L18.075 17.3227ZM20.1 7.30652L20.9781 7.52569C21.038 7.22935 20.9734 6.91881 20.8027 6.68168C20.6319 6.44454 20.3733 6.30651 20.1 6.30651V7.30652ZM6.93749 6.30651C6.44044 6.30651 6.0375 6.75422 6.0375 7.30652C6.0375 7.8588 6.44044 8.30652 6.93749 8.30652V6.30651ZM3.9 4.96779H5.925V2.96777H3.9V4.96779ZM5.03751 4.13392L7.0625 17.4889L8.83748 17.1566L6.81248 3.80164L5.03751 4.13392ZM7.94999 18.3227H18.075V16.3227H7.94999V18.3227ZM18.9531 17.5419L20.9781 7.52569L19.2218 7.08734L17.1968 17.1036L18.9531 17.5419ZM20.1 6.30651H6.93749V8.30652H20.1V6.30651Z" fill="#9098B1"/>
</svg>
