<svg width="9" height="7" viewBox="0 0 9 7" fill="none" xmlns="http://www.w3.org/2000/svg">
<path d="M1.73106 2.81768C1.35423 2.41393 0.721436 2.39211 0.317686 2.76894C-0.0860656 3.14578 -0.107886 3.77857 0.268949 4.18232L1.73106 2.81768ZM3.33333 6L2.60228 6.68232C2.7914 6.88495 3.05615 7 3.33333 7C3.61051 7 3.87526 6.88495 4.06439 6.68232L3.33333 6ZM8.73106 1.68232C9.10789 1.27857 9.08607 0.645783 8.68232 0.268949C8.27857 -0.107886 7.64578 -0.0860656 7.26894 0.317686L8.73106 1.68232ZM0.268949 4.18232L2.60228 6.68232L4.06439 5.31768L1.73106 2.81768L0.268949 4.18232ZM4.06439 6.68232L8.73106 1.68232L7.26894 0.317686L2.60228 5.31768L4.06439 6.68232Z" fill="white"/>
</svg>
