<svg width="24" height="24" viewBox="0 0 24 24" fill="none" xmlns="http://www.w3.org/2000/svg">
<path fill-rule="evenodd" clip-rule="evenodd" d="M12 4.00055C10.3971 4.00055 9.09766 5.29999 9.09766 6.90293C9.09766 8.50587 10.3971 9.80531 12 9.80531C13.603 9.80531 14.9024 8.50587 14.9024 6.90293C14.9024 5.29999 13.603 4.00055 12 4.00055ZM7.09766 6.90293C7.09766 4.19542 9.29253 2.00055 12 2.00055C14.7075 2.00055 16.9024 4.19542 16.9024 6.90293C16.9024 9.61044 14.7075 11.8053 12 11.8053C9.29253 11.8053 7.09766 9.61044 7.09766 6.90293Z" fill="#9098B1"/>
<path fill-rule="evenodd" clip-rule="evenodd" d="M9.51784 15.3902C6.47035 15.3902 4 17.8605 4 20.908V20.9992C4 21.5514 3.55228 21.9992 3 21.9992C2.44771 21.9992 2 21.5514 2 20.9992V20.908C2 16.756 5.36578 13.3902 9.51784 13.3902H14.4822C18.6342 13.3902 22 16.756 22 20.908V20.9992C22 21.5514 21.5523 21.9992 21 21.9992C20.4477 21.9992 20 21.5514 20 20.9992V20.908C20 17.8605 17.5296 15.3902 14.4822 15.3902H9.51784Z" fill="#9098B1"/>
</svg>
