<svg width="24" height="24" viewBox="0 0 24 24" fill="none" xmlns="http://www.w3.org/2000/svg">
<path d="M11 13L9 13C9 14.1046 9.89543 15 11 15L11 13ZM11 13L11 11C9.89543 11 9 11.8954 9 13L11 13ZM11 13L13 13C13 11.8954 12.1046 11 11 11L11 13ZM11 13L11 15C12.1046 15 13 14.1046 13 13L11 13Z" fill="#9098B1"/>
<path d="M11 20L9 20C9 21.1046 9.89543 22 11 22L11 20ZM11 20L11 18C9.89543 18 9 18.8954 9 20L11 20ZM11 20L13 20C13 18.8954 12.1046 18 11 18L11 20ZM11 20L11 22C12.1046 22 13 21.1046 13 20L11 20Z" fill="#9098B1"/>
<path d="M11 6L9 6C9 7.10457 9.89543 8 11 8L11 6ZM11 6L11 4C9.89543 4 9 4.89543 9 6L11 6ZM11 6L13 6C13 4.89543 12.1046 4 11 4L11 6ZM11 6L11 8C12.1046 8 13 7.10457 13 6L11 6Z" fill="#9098B1"/>
</svg>
