<svg width="24" height="24" viewBox="0 0 24 24" fill="none" xmlns="http://www.w3.org/2000/svg">
<path fill-rule="evenodd" clip-rule="evenodd" d="M2 5.24997C2 4.69768 2.44771 4.24997 3 4.24997H21C21.5523 4.24997 22 4.69768 22 5.24997V18.75C22 19.3023 21.5523 19.75 21 19.75H3C2.44771 19.75 2 19.3023 2 18.75V5.24997ZM4 6.24997V17.75H20V6.24997H4Z" fill="#9098B1"/>
<path fill-rule="evenodd" clip-rule="evenodd" d="M2.24075 4.5992C2.60017 4.17987 3.23147 4.13131 3.6508 4.49072L12 11.647L20.3492 4.49072C20.7686 4.13131 21.3999 4.17987 21.7593 4.5992C22.1187 5.01853 22.0701 5.64983 21.6508 6.00925L12.6508 13.7234C12.2763 14.0444 11.7237 14.0444 11.3492 13.7234L2.34923 6.00925C1.9299 5.64983 1.88134 5.01853 2.24075 4.5992Z" fill="#9098B1"/>
</svg>
