<svg width="24" height="24" viewBox="0 0 24 24" fill="none" xmlns="http://www.w3.org/2000/svg">
<path d="M3.5258 4.94315C3.10694 5.05273 2.89472 5.37845 3.05179 5.67067C3.20886 5.96289 3.67575 6.11095 4.0946 6.00137L3.5258 4.94315ZM11.1 3.56509L11.3844 3.03598C11.2011 2.98801 10.999 2.98801 10.8156 3.03598L11.1 3.56509ZM18.1054 6.00137C18.5243 6.11095 18.9912 5.96289 19.1482 5.67067C19.3053 5.37845 19.0931 5.05273 18.6742 4.94315L18.1054 6.00137ZM4.0946 6.00137L11.3844 4.09419L10.8156 3.03598L3.5258 4.94315L4.0946 6.00137ZM10.8156 4.09419L18.1054 6.00137L18.6742 4.94315L11.3844 3.03598L10.8156 4.09419Z" fill="#40BFFF"/>
<path d="M3.9 19.2C3.40294 19.2 3 19.603 3 20.1C3 20.5971 3.40294 21 3.9 21V19.2ZM20.1 21C20.5971 21 21 20.5971 21 20.1C21 19.603 20.5971 19.2 20.1 19.2V21ZM3.9 21H20.1V19.2H3.9V21Z" fill="#40BFFF"/>
<path d="M11.1001 16.05C11.1001 16.5471 11.503 16.95 12.0001 16.95C12.4972 16.95 12.9001 16.5471 12.9001 16.05H11.1001ZM12.9001 9.97501C12.9001 9.47796 12.4972 9.07501 12.0001 9.07501C11.503 9.07501 11.1001 9.47796 11.1001 9.97501H12.9001ZM12.9001 16.05V9.97501H11.1001V16.05H12.9001Z" fill="#40BFFF"/>
<path d="M17.1748 16.05C17.1748 16.5471 17.5777 16.95 18.0748 16.95C18.5719 16.95 18.9748 16.5471 18.9748 16.05H17.1748ZM18.9748 9.97501C18.9748 9.47796 18.5719 9.07501 18.0748 9.07501C17.5777 9.07501 17.1748 9.47796 17.1748 9.97501H18.9748ZM18.9748 16.05V9.97501H17.1748V16.05H18.9748Z" fill="#40BFFF"/>
<path d="M5.0249 16.05C5.0249 16.5471 5.42785 16.95 5.9249 16.95C6.42196 16.95 6.8249 16.5471 6.8249 16.05H5.0249ZM6.8249 9.97501C6.8249 9.47796 6.42196 9.07501 5.9249 9.07501C5.42785 9.07501 5.0249 9.47796 5.0249 9.97501H6.8249ZM6.8249 16.05V9.97501H5.0249V16.05H6.8249Z" fill="#40BFFF"/>
</svg>
