<svg width="24" height="24" viewBox="0 0 24 24" fill="none" xmlns="http://www.w3.org/2000/svg">
<path d="M22.0833 16.1667V17C22.5896 17 23 16.6269 23 16.1667H22.0833ZM22.0833 7.83336H23C23 7.49341 22.7729 7.18754 22.426 7.06045C22.0792 6.93336 21.6822 7.01054 21.4229 7.25547L22.0833 7.83336ZM14.5208 7.83336L15.1813 7.25547C14.8996 6.98939 14.4588 6.9236 14.0982 7.09384L14.5208 7.83336ZM2.77753 13.3786L2.35499 12.6391L2.35337 12.6398L2.77753 13.3786ZM3.47454 17H22.0833V15.3333H3.47454V17ZM23 16.1667V7.83336H21.1667V16.1667H23ZM22.0833 7.83336C21.4229 7.25547 21.4231 7.25518 21.4235 7.2549C21.4236 7.25481 21.4239 7.25453 21.4241 7.25435C21.4244 7.254 21.4248 7.25366 21.4252 7.25334C21.4258 7.2527 21.4265 7.25213 21.427 7.25163C21.4281 7.25062 21.4288 7.24989 21.4294 7.24943C21.4304 7.24851 21.4302 7.24864 21.4289 7.24977C21.4265 7.25204 21.4193 7.25826 21.4077 7.2679C21.3843 7.28719 21.3429 7.32001 21.2835 7.36204C21.1647 7.44622 20.9753 7.5664 20.7155 7.68909C20.199 7.93298 19.3976 8.1905 18.3021 8.1905V9.85716C19.7274 9.85716 20.8166 9.51945 21.5606 9.1681C21.931 8.99317 22.2141 8.81574 22.4104 8.6767C22.5087 8.60713 22.5855 8.54694 22.6409 8.50113C22.6686 8.47821 22.691 8.45886 22.7081 8.44368C22.7168 8.4361 22.724 8.42955 22.7299 8.42412C22.7329 8.4214 22.7355 8.41897 22.7378 8.41682C22.739 8.41574 22.74 8.41474 22.741 8.41381C22.7416 8.41335 22.7421 8.4129 22.7425 8.41248C22.7427 8.41226 22.7431 8.41196 22.7432 8.41185C22.7434 8.41155 22.7438 8.41125 22.0833 7.83336ZM18.3021 8.1905C17.2066 8.1905 16.4051 7.93298 15.8887 7.68909C15.6289 7.5664 15.4394 7.44622 15.3206 7.36204C15.2612 7.32001 15.2199 7.28719 15.1965 7.2679C15.1849 7.25826 15.1777 7.25204 15.1752 7.24977C15.174 7.24864 15.1738 7.24851 15.1748 7.24943C15.1753 7.24989 15.1761 7.25062 15.1772 7.25163C15.1777 7.25213 15.1784 7.2527 15.179 7.25334C15.1794 7.25366 15.1797 7.254 15.1801 7.25435C15.1803 7.25453 15.1806 7.25481 15.1807 7.2549C15.181 7.25518 15.1813 7.25547 14.5208 7.83336C13.8604 8.41125 13.8607 8.41155 13.861 8.41185C13.8611 8.41196 13.8615 8.41226 13.8617 8.41248C13.8621 8.4129 13.8626 8.41335 13.8631 8.41381C13.8641 8.41474 13.8651 8.41574 13.8663 8.41682C13.8686 8.41897 13.8713 8.4214 13.8742 8.42412C13.8802 8.42955 13.8874 8.4361 13.896 8.44368C13.9132 8.45886 13.9355 8.47821 13.9633 8.50113C14.0187 8.54694 14.0955 8.60713 14.1938 8.6767C14.39 8.81574 14.6732 8.99317 15.0436 9.1681C15.7876 9.51945 16.8768 9.85716 18.3021 9.85716V8.1905ZM14.0982 7.09384L2.35499 12.6391L3.20007 14.1181L14.9434 8.57288L14.0982 7.09384ZM2.35337 12.6398C1.5134 13.0384 1 13.8385 1 14.6952H2.83333C2.83333 14.4377 2.98795 14.2188 3.2017 14.1173L2.35337 12.6398ZM1 14.6952C1 15.9383 2.07471 17 3.47454 17V15.3333C3.15265 15.3333 2.83333 15.0784 2.83333 14.6952H1Z" fill="#40BFFF"/>
<path d="M12.7628 9.03783C12.482 8.65489 11.9129 8.55141 11.4917 8.8067C11.0704 9.06199 10.9566 9.57938 11.2374 9.96232L12.7628 9.03783ZM13.0708 12.4623C13.3516 12.8453 13.9207 12.9487 14.3419 12.6934C14.7632 12.4382 14.877 11.9208 14.5962 11.5378L13.0708 12.4623ZM11.2374 9.96232L13.0708 12.4623L14.5962 11.5378L12.7628 9.03783L11.2374 9.96232Z" fill="#40BFFF"/>
<path d="M9.09331 10.7007C8.8102 10.3192 8.24045 10.2185 7.82076 10.4759C7.40106 10.7333 7.29034 11.2512 7.57346 11.6328L9.09331 10.7007ZM8.66974 13.1102C8.95286 13.4917 9.5226 13.5923 9.94229 13.335C10.362 13.0776 10.4727 12.5597 10.1896 12.1781L8.66974 13.1102ZM7.57346 11.6328L8.66974 13.1102L10.1896 12.1781L9.09331 10.7007L7.57346 11.6328Z" fill="#40BFFF"/>
</svg>
