<svg width="32" height="32" viewBox="0 0 32 32" fill="none" xmlns="http://www.w3.org/2000/svg">
<path d="M15.9998 2.66675C14.2489 2.66675 12.515 3.01163 10.8974 3.68169C9.2797 4.35175 7.80985 5.33388 6.57173 6.57199C4.07125 9.07248 2.66649 12.4639 2.66649 16C2.65483 19.0789 3.72088 22.0648 5.67983 24.44L3.01315 27.1067C2.82814 27.2942 2.70282 27.5323 2.65298 27.7909C2.60315 28.0496 2.63105 28.3172 2.73315 28.56C2.8439 28.7999 3.02343 29.0015 3.24895 29.1392C3.47447 29.2769 3.73583 29.3445 3.99983 29.3334H15.9998C19.536 29.3334 22.9274 27.9286 25.4279 25.4281C27.9284 22.9276 29.3332 19.5363 29.3332 16C29.3332 12.4639 27.9284 9.07248 25.4279 6.57199C22.9274 4.07151 19.536 2.66675 15.9998 2.66675ZM15.9998 26.6667H7.21316L8.45316 25.4267C8.70149 25.1769 8.84088 24.8389 8.84088 24.4867C8.84088 24.1345 8.70149 23.7965 8.45316 23.5467C6.70727 21.8028 5.62006 19.5074 5.37675 17.0518C5.13344 14.5961 5.74908 12.1321 7.11879 10.0794C8.48851 8.0268 10.5275 6.51256 12.8885 5.79471C15.2495 5.07687 17.7863 5.19982 20.0668 6.14263C22.3472 7.08545 24.2303 8.78978 25.3951 10.9653C26.5598 13.1407 26.9343 15.6528 26.4547 18.0734C25.975 20.494 24.6709 22.6734 22.7645 24.2404C20.8582 25.8073 18.4675 26.6648 15.9998 26.6667ZM22.6665 14.6667H9.33316C8.97954 14.6667 8.6404 14.8072 8.39035 15.0572C8.1403 15.3073 7.99983 15.6464 7.99983 16C7.99983 16.3537 8.1403 16.6928 8.39035 16.9428C8.6404 17.1929 8.97954 17.3334 9.33316 17.3334H22.6665C23.0201 17.3334 23.3592 17.1929 23.6093 16.9428C23.8593 16.6928 23.9998 16.3537 23.9998 16C23.9998 15.6464 23.8593 15.3073 23.6093 15.0572C23.3592 14.8072 23.0201 14.6667 22.6665 14.6667ZM19.9998 20H11.9998C11.6462 20 11.3071 20.1405 11.057 20.3906C10.807 20.6406 10.6665 20.9797 10.6665 21.3334C10.6665 21.687 10.807 22.0261 11.057 22.2762C11.3071 22.5262 11.6462 22.6667 11.9998 22.6667H19.9998C20.3534 22.6667 20.6926 22.5262 20.9426 22.2762C21.1927 22.0261 21.3332 21.687 21.3332 21.3334C21.3332 20.9797 21.1927 20.6406 20.9426 20.3906C20.6926 20.1405 20.3534 20 19.9998 20ZM11.9998 12.0001H19.9998C20.3534 12.0001 20.6926 11.8596 20.9426 11.6096C21.1927 11.3595 21.3332 11.0204 21.3332 10.6667C21.3332 10.3131 21.1927 9.97399 20.9426 9.72394C20.6926 9.47389 20.3534 9.33342 19.9998 9.33342H11.9998C11.6462 9.33342 11.3071 9.47389 11.057 9.72394C10.807 9.97399 10.6665 10.3131 10.6665 10.6667C10.6665 11.0204 10.807 11.3595 11.057 11.6096C11.3071 11.8596 11.6462 12.0001 11.9998 12.0001Z" fill="#4D90FF"/>
</svg>
