<svg width="16" height="16" viewBox="0 0 16 16" fill="none" xmlns="http://www.w3.org/2000/svg">
<path d="M3.93057 12.2754C3.2611 13.1274 3.2611 14.5089 3.93057 15.3609C4.60004 16.213 5.68546 16.213 6.35493 15.3609L3.93057 12.2754ZM15.4978 3.72459C16.1673 2.87254 16.1673 1.49109 15.4978 0.639038C14.8283 -0.213013 13.7429 -0.213013 13.0734 0.639038L15.4978 3.72459ZM6.35493 15.3609L15.4978 3.72459L13.0734 0.639038L3.93057 12.2754L6.35493 15.3609Z" fill="white"/>
<path d="M2.92656 0.639038C2.25708 -0.213013 1.17171 -0.213013 0.502219 0.639038C-0.167266 1.49109 -0.167266 2.87254 0.502219 3.72459L2.92656 0.639038ZM9.64507 15.3609C10.3145 16.213 11.4 16.213 12.0694 15.3609C12.7389 14.5089 12.7389 13.1275 12.0694 12.2754L9.64507 15.3609ZM0.502219 3.72459L9.64507 15.3609L12.0694 12.2754L2.92656 0.639038L0.502219 3.72459Z" fill="white"/>
</svg>
