<svg width="24" height="24" viewBox="0 0 24 24" fill="none" xmlns="http://www.w3.org/2000/svg">
<path fill-rule="evenodd" clip-rule="evenodd" d="M12 3.95749C10.3971 3.95749 9.09766 5.24296 9.09766 6.82866C9.09766 8.41437 10.3971 9.69983 12 9.69983C13.603 9.69983 14.9024 8.41437 14.9024 6.82866C14.9024 5.24296 13.603 3.95749 12 3.95749ZM7.09766 6.82866C7.09766 4.15027 9.29253 1.979 12 1.979C14.7075 1.979 16.9024 4.15027 16.9024 6.82866C16.9024 9.50706 14.7075 11.6783 12 11.6783C9.29253 11.6783 7.09766 9.50706 7.09766 6.82866Z" fill="#9098B1"/>
<path fill-rule="evenodd" clip-rule="evenodd" d="M9.51784 15.2251C6.47035 15.2251 4 17.6689 4 20.6836V20.7737C4 21.3201 3.55228 21.763 3 21.763C2.44771 21.763 2 21.3201 2 20.7737V20.6836C2 16.5762 5.36578 13.2466 9.51784 13.2466H14.4822C18.6342 13.2466 22 16.5762 22 20.6836V20.7737C22 21.3201 21.5523 21.763 21 21.763C20.4477 21.763 20 21.3201 20 20.7737V20.6836C20 17.6689 17.5296 15.2251 14.4822 15.2251H9.51784Z" fill="#9098B1"/>
</svg>
