<svg width="24" height="24" viewBox="0 0 24 24" fill="none" xmlns="http://www.w3.org/2000/svg">
<g clip-path="url(#clip0_1809_3463)">
<path d="M9.66672 4.00001L10.5633 3.55723C10.4272 3.28157 10.1719 3.08385 9.87089 3.02108C9.56993 2.9583 9.25682 3.03746 9.02185 3.23572L9.66672 4.00001ZM16.3333 4.00001L16.9782 3.23572C16.7432 3.03746 16.4301 2.9583 16.1292 3.02108C15.8282 3.08385 15.5728 3.28157 15.4367 3.55723L16.3333 4.00001ZM23 9.62501L23.8352 10.1749C24.1138 9.75188 24.032 9.18736 23.6449 8.86072L23 9.62501ZM20.7778 13L20.3261 13.8922C20.7797 14.1218 21.3334 13.9746 21.613 13.5499L20.7778 13ZM18.5556 11.875L19.0072 10.9828C18.6972 10.8259 18.328 10.8411 18.0319 11.0231C17.7359 11.205 17.5556 11.5275 17.5556 11.875H18.5556ZM18.5556 22V23C19.1078 23 19.5556 22.5523 19.5556 22H18.5556ZM7.44449 22H6.44449C6.44449 22.5523 6.89221 23 7.44449 23V22ZM7.44449 11.875H8.44449C8.44449 11.5275 8.26413 11.205 7.9681 11.0231C7.67208 10.8411 7.30283 10.8259 6.99283 10.9828L7.44449 11.875ZM5.22227 13L4.38706 13.5499C4.66665 13.9746 5.22035 14.1218 5.67394 13.8922L5.22227 13ZM3.00005 9.62501L2.35518 8.86072C1.96804 9.18736 1.88628 9.75188 2.16484 10.1749L3.00005 9.62501ZM9.66672 4.00001C8.77009 4.44279 8.77026 4.44315 8.77044 4.44351C8.77051 4.44365 8.7707 4.44402 8.77083 4.44429C8.77109 4.44482 8.77138 4.44539 8.77168 4.446C8.77228 4.44721 8.77295 4.44856 8.7737 4.45005C8.77519 4.45302 8.77698 4.45655 8.77905 4.46062C8.78319 4.46875 8.7885 4.47904 8.79498 4.49133C8.80792 4.5159 8.82556 4.54857 8.84792 4.58819C8.89257 4.6673 8.95647 4.77489 9.03984 4.90151C9.20544 5.153 9.45398 5.48894 9.78857 5.82771C10.4517 6.4991 11.5256 7.25001 13 7.25001V5.25001C12.2523 5.25001 11.6595 4.87592 11.2115 4.42231C10.9906 4.19858 10.8224 3.97202 10.7103 3.80164C10.6547 3.71732 10.6145 3.64913 10.5897 3.60519C10.5773 3.58329 10.5689 3.56762 10.5645 3.55923C10.5623 3.55505 10.5611 3.55269 10.5609 3.55231C10.5608 3.55212 10.5609 3.55242 10.5614 3.55324C10.5616 3.55364 10.5618 3.55418 10.5622 3.55484C10.5623 3.55518 10.5625 3.55554 10.5627 3.55594C10.5628 3.55614 10.563 3.55646 10.563 3.55656C10.5632 3.55689 10.5633 3.55723 9.66672 4.00001ZM13 7.25001C14.4745 7.25001 15.5484 6.4991 16.2115 5.82771C16.5461 5.48894 16.7946 5.153 16.9602 4.90151C17.0436 4.77489 17.1075 4.6673 17.1521 4.58819C17.1745 4.54857 17.1921 4.5159 17.2051 4.49133C17.2115 4.47904 17.2169 4.46875 17.221 4.46062C17.2231 4.45655 17.2249 4.45302 17.2264 4.45005C17.2271 4.44856 17.2278 4.44721 17.2284 4.446C17.2287 4.44539 17.229 4.44482 17.2292 4.44429C17.2294 4.44402 17.2295 4.44365 17.2296 4.44351C17.2298 4.44315 17.23 4.44279 16.3333 4.00001C15.4367 3.55723 15.4369 3.55689 15.437 3.55656C15.4371 3.55646 15.4372 3.55614 15.4373 3.55594C15.4375 3.55554 15.4377 3.55518 15.4379 3.55484C15.4382 3.55418 15.4385 3.55364 15.4387 3.55324C15.4391 3.55242 15.4393 3.55212 15.4392 3.55231C15.439 3.55269 15.4378 3.55505 15.4356 3.55923C15.4311 3.56762 15.4227 3.58329 15.4104 3.60519C15.3856 3.64913 15.3453 3.71732 15.2898 3.80164C15.1776 3.97202 15.0095 4.19858 14.7885 4.42231C14.3405 4.87592 13.7478 5.25001 13 5.25001V7.25001ZM15.6885 4.7643L22.3551 10.3893L23.6449 8.86072L16.9782 3.23572L15.6885 4.7643ZM22.1648 9.07508L19.9426 12.4501L21.613 13.5499L23.8352 10.1749L22.1648 9.07508ZM21.2294 12.1078L19.0072 10.9828L18.1039 12.7672L20.3261 13.8922L21.2294 12.1078ZM17.5556 11.875V22H19.5556V11.875H17.5556ZM18.5556 21H7.44449V23H18.5556V21ZM8.44449 22V11.875H6.44449V22H8.44449ZM6.99283 10.9828L4.7706 12.1078L5.67394 13.8922L7.89616 12.7672L6.99283 10.9828ZM6.05748 12.4501L3.83526 9.07508L2.16484 10.1749L4.38706 13.5499L6.05748 12.4501ZM3.64492 10.3893L10.3116 4.7643L9.02185 3.23572L2.35518 8.86072L3.64492 10.3893Z" fill="#40BFFF"/>
</g>
<defs>
<clipPath id="clip0_1809_3463">
<rect width="24" height="24" fill="white"/>
</clipPath>
</defs>
</svg>
