<svg width="24" height="24" viewBox="0 0 24 24" fill="none" xmlns="http://www.w3.org/2000/svg">
<circle cx="12" cy="12" r="12" fill="#EBF0FF"/>
<path d="M10.7311 12.8177C10.3542 12.4139 9.72144 12.3921 9.31769 12.7689C8.91393 13.1458 8.89211 13.7786 9.26895 14.1823L10.7311 12.8177ZM12.3333 16L11.6023 16.6823C11.7914 16.885 12.0562 17 12.3333 17C12.6105 17 12.8753 16.885 13.0644 16.6823L12.3333 16ZM17.7311 11.6823C18.1079 11.2786 18.0861 10.6458 17.6823 10.2689C17.2786 9.89211 16.6458 9.91393 16.2689 10.3177L17.7311 11.6823ZM9.26895 14.1823L11.6023 16.6823L13.0644 15.3177L10.7311 12.8177L9.26895 14.1823ZM13.0644 16.6823L17.7311 11.6823L16.2689 10.3177L11.6023 15.3177L13.0644 16.6823Z" fill="white"/>
</svg>
