<svg width="24" height="24" viewBox="0 0 24 24" fill="none" xmlns="http://www.w3.org/2000/svg">
<path d="M14.25 18.625C14.25 19.1773 14.6977 19.625 15.25 19.625C15.8023 19.625 16.25 19.1773 16.25 18.625H14.25ZM15.25 13L14.45 12.4C14.3202 12.5731 14.25 12.7836 14.25 13H15.25ZM22 4L22.8 4.6C23.0273 4.29698 23.0638 3.89157 22.8944 3.55279C22.725 3.214 22.3788 3 22 3V4ZM4.00001 4V3C3.62123 3 3.27497 3.214 3.10558 3.55279C2.93619 3.89157 2.97275 4.29698 3.20001 4.6L4.00001 4ZM10.75 13H11.75C11.75 12.7836 11.6798 12.5731 11.55 12.4L10.75 13ZM9.75001 22C9.75001 22.5523 10.1977 23 10.75 23C11.3023 23 11.75 22.5523 11.75 22H9.75001ZM16.25 18.625V13H14.25V18.625H16.25ZM16.05 13.6L22.8 4.6L21.2 3.4L14.45 12.4L16.05 13.6ZM22 3H4.00001V5H22V3ZM3.20001 4.6L9.95001 13.6L11.55 12.4L4.80001 3.4L3.20001 4.6ZM9.75001 13V22H11.75V13H9.75001Z" fill="#40BFFF"/>
</svg>
