<svg width="24" height="24" viewBox="0 0 24 24" fill="none" xmlns="http://www.w3.org/2000/svg">
<path d="M7.55606 8.06249C7.83565 8.06249 8.06231 7.83583 8.06231 7.55624C8.06231 7.27664 7.83565 7.04999 7.55606 7.04999C7.27646 7.04999 7.0498 7.27664 7.0498 7.55624C7.0498 7.83583 7.27646 8.06249 7.55606 8.06249Z" fill="#9098B1" stroke="#9098B1" stroke-width="2" stroke-linecap="round" stroke-linejoin="round"/>
<path d="M20.1 12.9001L20.7364 13.5365C21.0879 13.185 21.0879 12.6152 20.7364 12.2637L20.1 12.9001ZM12.9001 20.1L12.2637 20.7364C12.6152 21.0879 13.185 21.0879 13.5365 20.7364L12.9001 20.1ZM3.9 11.0999H3C3 11.3386 3.09482 11.5675 3.2636 11.7363L3.9 11.0999ZM3.9 3.9V3C3.40294 3 3 3.40294 3 3.9H3.9ZM11.0999 3.9L11.7363 3.2636C11.5675 3.09482 11.3386 3 11.0999 3V3.9ZM19.4636 12.2637L12.2637 19.4636L13.5365 20.7364L20.7364 13.5365L19.4636 12.2637ZM13.5365 19.4636L4.5364 10.4635L3.2636 11.7363L12.2637 20.7364L13.5365 19.4636ZM4.8 11.0999V3.9H3V11.0999H4.8ZM3.9 4.8H11.0999V3H3.9V4.8ZM10.4635 4.5364L19.4636 13.5365L20.7364 12.2637L11.7363 3.2636L10.4635 4.5364Z" fill="#9098B1"/>
</svg>
