<svg width="24" height="24" viewBox="0 0 24 24" fill="none" xmlns="http://www.w3.org/2000/svg">
<path d="M3.9 6.75931V5.85931C3.40294 5.85931 3 6.26226 3 6.75931H3.9ZM20.1 6.75931H21C21 6.26226 20.5971 5.85931 20.1 5.85931V6.75931ZM20.1 20.1V21C20.5971 21 21 20.5971 21 20.1H20.1ZM3.9 20.1H3C3 20.5971 3.40294 21 3.9 21V20.1ZM3.9 7.65931H20.1V5.85931H3.9V7.65931ZM19.2 6.75931V20.1H21V6.75931H19.2ZM20.1 19.2H3.9V21H20.1V19.2ZM4.8 20.1V6.75931H3V20.1H4.8Z" fill="#40BFFF"/>
<path d="M20.1 6.75931V7.65931C20.4319 7.65931 20.7368 7.47666 20.8934 7.18405C21.0501 6.89144 21.0329 6.53638 20.8489 6.26021L20.1 6.75931ZM3.9 6.75931L3.15108 6.26021C2.96702 6.53638 2.9499 6.89144 3.10653 7.18405C3.26316 7.47666 3.56811 7.65931 3.9 7.65931V6.75931ZM5.80553 3.90002V3.00002C5.50456 3.00002 5.22351 3.15046 5.0566 3.40091L5.80553 3.90002ZM18.1944 3.90002L18.9434 3.40091C18.7765 3.15046 18.4955 3.00002 18.1944 3.00002V3.90002ZM20.1 5.85931H3.9V7.65931H20.1V5.85931ZM4.64893 7.25842L6.55445 4.39912L5.0566 3.40091L3.15108 6.26021L4.64893 7.25842ZM5.80553 4.80001H18.1944V3.00002H5.80553V4.80001ZM17.4455 4.39912L19.3511 7.25842L20.8489 6.26021L18.9434 3.40091L17.4455 4.39912Z" fill="#40BFFF"/>
<path d="M15.0444 10.8093C15.0444 10.3123 14.6415 9.90932 14.1444 9.90932C13.6474 9.90932 13.2444 10.3123 13.2444 10.8093H15.0444ZM10.7575 10.8093C10.7575 10.3123 10.3546 9.90932 9.85752 9.90932C9.36046 9.90932 8.95752 10.3123 8.95752 10.8093H10.7575ZM13.2444 10.8093C13.2444 11.4959 12.6875 12.0528 12.001 12.0528V13.8528C13.6817 13.8528 15.0444 12.49 15.0444 10.8093H13.2444ZM12.001 12.0528C11.3144 12.0528 10.7575 11.4959 10.7575 10.8093H8.95752C8.95752 12.49 10.3203 13.8528 12.001 13.8528V12.0528Z" fill="#40BFFF"/>
</svg>
