<svg width="24" height="24" viewBox="0 0 24 24" fill="none" xmlns="http://www.w3.org/2000/svg">
<path d="M8.56875 21C8.84834 21 9.075 20.7482 9.075 20.4375C9.075 20.1268 8.84834 19.875 8.56875 19.875C8.28916 19.875 8.0625 20.1268 8.0625 20.4375C8.0625 20.7482 8.28916 21 8.56875 21Z" fill="#40BFFF" stroke="#40BFFF" stroke-width="2" stroke-linecap="round" stroke-linejoin="round"/>
<path d="M15.6562 21C15.9357 21 16.1624 20.7482 16.1624 20.4375C16.1624 20.1268 15.9357 19.875 15.6562 19.875C15.3766 19.875 15.1499 20.1268 15.1499 20.4375C15.1499 20.7482 15.3766 21 15.6562 21Z" fill="#40BFFF" stroke="#40BFFF" stroke-width="2" stroke-linecap="round" stroke-linejoin="round"/>
<path d="M3.9 3C3.40294 3 3 3.44771 3 4C3 4.55228 3.40294 5 3.9 5V3ZM5.925 4L6.81275 3.8356C6.74042 3.35341 6.36495 3 5.925 3V4ZM7.95 17.5L7.06225 17.6644C7.13457 18.1466 7.51004 18.5 7.95 18.5V17.5ZM18.075 17.5V18.5C18.4968 18.5 18.862 18.1745 18.9536 17.7169L18.075 17.5ZM20.1 7.375L20.9786 7.59193C21.0378 7.29583 20.9728 6.98587 20.802 6.74927C20.6312 6.51267 20.373 6.375 20.1 6.375V7.375ZM6.9375 6.375C6.44045 6.375 6.0375 6.82272 6.0375 7.375C6.0375 7.92728 6.44045 8.375 6.9375 8.375V6.375ZM3.9 5H5.925V3H3.9V5ZM5.03725 4.1644L7.06225 17.6644L8.83775 17.3356L6.81275 3.8356L5.03725 4.1644ZM7.95 18.5H18.075V16.5H7.95V18.5ZM18.9536 17.7169L20.9786 7.59193L19.2214 7.15807L17.1964 17.2831L18.9536 17.7169ZM20.1 6.375H6.9375V8.375H20.1V6.375Z" fill="#40BFFF"/>
</svg>
