<svg width="20" height="20" viewBox="0 0 20 20" fill="none" xmlns="http://www.w3.org/2000/svg">
<g opacity="0.5">
<path fill-rule="evenodd" clip-rule="evenodd" d="M14.7145 5.28617C15.0399 5.61161 15.0399 6.13925 14.7145 6.46468L6.46492 14.7143C6.13951 15.0397 5.61187 15.0397 5.28643 14.7142C4.961 14.3888 4.961 13.8612 5.28641 13.5358L13.536 5.28617C13.8614 4.96073 14.3891 4.96073 14.7145 5.28617Z" fill="#223263"/>
<path fill-rule="evenodd" clip-rule="evenodd" d="M5.2855 5.28617C5.61094 4.96073 6.13857 4.96073 6.46401 5.28617L14.7136 13.5358C15.039 13.8612 15.039 14.3888 14.7136 14.7142C14.3881 15.0397 13.8605 15.0397 13.5351 14.7143L5.2855 6.46468C4.96006 6.13925 4.96006 5.61161 5.2855 5.28617Z" fill="#223263"/>
</g>
</svg>
