<svg width="24" height="24" viewBox="0 0 24 24" fill="none" xmlns="http://www.w3.org/2000/svg">
<path d="M21.7002 20.2997L18.0002 16.5997C21.1002 12.6997 20.5002 6.99975 16.6002 3.89975C12.7002 0.799749 7.00024 1.49975 3.90024 5.29975C0.800238 9.19975 1.50024 14.8997 5.30024 17.9997C8.60024 20.5997 13.3002 20.5997 16.6002 17.9997L20.3002 21.6997C20.7002 22.0997 21.3002 22.0997 21.7002 21.6997C22.1002 21.2997 22.1002 20.6997 21.7002 20.2997ZM11.0002 17.9997C7.10024 17.9997 4.00024 14.8997 4.00024 10.9997C4.00024 7.09975 7.10024 3.99975 11.0002 3.99975C14.9002 3.99975 18.0002 7.09975 18.0002 10.9997C18.0002 14.8997 14.9002 17.9997 11.0002 17.9997Z" fill="#262B35"/>
</svg>
