<svg width="24" height="24" viewBox="0 0 24 24" fill="none" xmlns="http://www.w3.org/2000/svg">
<path d="M6.53677 2.90909V2C6.08137 2 5.70078 2.35708 5.65827 2.82424L6.53677 2.90909ZM16.4633 2.90909L17.3417 2.82424C17.2993 2.35708 16.9186 2 16.4633 2V2.90909ZM18.1177 21.0909V22C18.366 22 18.6029 21.8922 18.7701 21.703C18.9373 21.5138 19.0193 21.2608 18.9961 21.0061L18.1177 21.0909ZM14.8088 21.0909L13.9637 21.3521C14.0757 21.7366 14.4192 22 14.8088 22V21.0909ZM11.5 9.72727L12.3452 9.46605C12.2332 9.08152 11.8897 8.81818 11.5 8.81818C11.1104 8.81818 10.7668 9.08152 10.6549 9.46605L11.5 9.72727ZM8.19118 21.0909V22C8.58084 22 8.92436 21.7366 9.03633 21.3521L8.19118 21.0909ZM4.88236 21.0909L4.00386 21.0061C3.98067 21.2608 4.06276 21.5138 4.22997 21.703C4.39718 21.8922 4.63402 22 4.88236 22V21.0909ZM6.53677 3.81818H16.4633V2H6.53677V3.81818ZM15.5848 2.99395L17.2392 21.1757L18.9961 21.0061L17.3417 2.82424L15.5848 2.99395ZM18.1177 20.1818H14.8088V22H18.1177V20.1818ZM15.654 20.8297L12.3452 9.46605L10.6549 9.9885L13.9637 21.3521L15.654 20.8297ZM10.6549 9.46605L7.34604 20.8297L9.03633 21.3521L12.3452 9.9885L10.6549 9.46605ZM8.19118 20.1818H4.88236V22H8.19118V20.1818ZM5.76086 21.1757L7.41527 2.99395L5.65827 2.82424L4.00386 21.0061L5.76086 21.1757Z" fill="#40BFFF"/>
<path d="M6.647 5.63635C6.15969 5.63635 5.76465 6.04337 5.76465 6.54544C5.76465 7.04752 6.15969 7.45453 6.647 7.45453L6.647 5.63635ZM16.3529 7.45454C16.8402 7.45454 17.2352 7.04752 17.2352 6.54544C17.2352 6.04337 16.8402 5.63635 16.3529 5.63635L16.3529 7.45454ZM6.647 7.45453L16.3529 7.45454L16.3529 5.63635L6.647 5.63635L6.647 7.45453Z" fill="#40BFFF"/>
</svg>
