<svg width="34" height="20" viewBox="0 0 34 20" fill="none" xmlns="http://www.w3.org/2000/svg">
<path d="M0.485431 0.47619V0H0V0.47619H0.485431ZM0.485431 19.5238H0V20H0.485431V19.5238ZM0.485431 0.952381H27.9813V0H0.485431V0.952381ZM32.3502 5.2381V14.7619H33.321V5.2381H32.3502ZM27.9813 19.0476H0.485431V20H27.9813V19.0476ZM0.970862 19.5238V0.47619H0V19.5238H0.970862ZM32.3502 14.7619C32.3502 17.1289 30.3942 19.0476 27.9813 19.0476V20C30.9304 20 33.321 17.6549 33.321 14.7619H32.3502ZM27.9813 0.952381C30.3942 0.952381 32.3502 2.87116 32.3502 5.2381H33.321C33.321 2.34517 30.9304 0 27.9813 0V0.952381Z" fill="#EBF0FF"/>
<path d="M16.9804 6.57767C16.9804 6.15928 16.62 5.8201 16.1753 5.8201C15.7306 5.8201 15.3701 6.15928 15.3701 6.57767H16.9804ZM15.3701 12.4699C15.3701 12.8883 15.7306 13.2275 16.1753 13.2275C16.62 13.2275 16.9804 12.8883 16.9804 12.4699H15.3701ZM15.3701 6.57767V12.4699H16.9804V6.57767H15.3701Z" fill="#9098B1"/>
<path d="M12.2627 8.76624C11.818 8.76624 11.4575 9.10541 11.4575 9.52381C11.4575 9.94221 11.818 10.2814 12.2627 10.2814V8.76624ZM20.0878 10.2814C20.5324 10.2814 20.893 9.94221 20.893 9.52381C20.893 9.10541 20.5324 8.76624 20.0878 8.76624V10.2814ZM12.2627 10.2814H20.0878V8.76624H12.2627V10.2814Z" fill="#9098B1"/>
</svg>
