<svg width="24" height="24" viewBox="0 0 24 24" fill="none" xmlns="http://www.w3.org/2000/svg">
<path d="M5.5448 13.7753L6.24383 13.0602L6.24382 13.0602L5.5448 13.7753ZM13 21.063L12.301 21.7781C12.6896 22.158 13.3104 22.158 13.699 21.7781L13 21.063ZM20.4552 13.7753L21.1542 14.4904L20.4552 13.7753ZM13.0403 6.44828L13.7393 7.16338L13.7394 7.16321L13.0403 6.44828ZM13 6.48763L12.301 7.20272C12.6896 7.5826 13.3104 7.5826 13.699 7.20273L13 6.48763ZM12.9588 6.44734L13.6578 5.73226V5.73225L12.9588 6.44734ZM5.50359 13.735L6.20261 13.0199L6.20245 13.0198L5.50359 13.735ZM4.84578 14.4904L12.301 21.7781L13.699 20.3479L6.24383 13.0602L4.84578 14.4904ZM13.699 21.7781L21.1542 14.4904L19.7562 13.0602L12.301 20.3479L13.699 21.7781ZM21.1542 14.4904L21.1945 14.4511L19.7964 13.0209L19.7562 13.0602L21.1542 14.4904ZM21.1945 14.4511C23.6565 12.0444 23.6567 8.13896 21.1943 5.73303L19.7966 7.16354C21.4558 8.78467 21.456 11.3986 19.7964 13.0209L21.1945 14.4511ZM21.1943 5.73303C18.7453 3.34012 14.7898 3.3385 12.3411 5.73335L13.7394 7.16321C15.4103 5.52913 18.1241 5.52937 19.7966 7.16354L21.1943 5.73303ZM12.3412 5.73318L12.301 5.77254L13.699 7.20273L13.7393 7.16338L12.3412 5.73318ZM13.699 5.77255L13.6578 5.73226L12.2597 7.16243L12.301 7.20272L13.699 5.77255ZM13.6578 5.73225C11.2085 3.33799 7.25294 3.33776 4.8044 5.73242L6.20278 7.16227C7.87386 5.52799 10.5875 5.52776 12.2598 7.16244L13.6578 5.73225ZM4.8044 5.73242C2.34382 8.13882 2.34213 12.0442 4.80473 14.4503L6.20245 13.0198C4.54351 11.3989 4.54374 8.7848 6.20278 7.16227L4.8044 5.73242ZM4.80457 14.4501L4.84578 14.4904L6.24382 13.0602L6.20261 13.0199L4.80457 14.4501Z" fill="#9098B1"/>
</svg>
