<svg width="24" height="24" viewBox="0 0 24 24" fill="none" xmlns="http://www.w3.org/2000/svg">
<path d="M19.0705 4.88852H19.9796C19.9796 4.3976 19.5726 3.99963 19.0705 3.99963V4.88852ZM4.92957 4.88852V3.99963C4.42749 3.99963 4.02048 4.3976 4.02048 4.88852H4.92957ZM4.92957 7.79777L5.81918 7.98076C5.83213 7.92058 5.83866 7.85926 5.83866 7.79777H4.92957ZM2.90911 17.1885L2.0195 17.0056C1.95144 17.3219 2.06436 17.6493 2.31438 17.8608L2.90911 17.1885ZM21.0909 17.1885L21.6856 17.8608C21.9366 17.6486 22.0493 17.3196 21.9798 17.0024L21.0909 17.1885ZM19.0705 7.96382H18.1614C18.1614 8.02638 18.1681 8.08878 18.1816 8.14996L19.0705 7.96382ZM19.0705 3.99963H4.92957V5.77741H19.0705V3.99963ZM4.02048 4.88852V7.79777H5.83866V4.88852H4.02048ZM4.03995 7.61478L2.0195 17.0056L3.79873 17.3715L5.81918 7.98076L4.03995 7.61478ZM2.90911 17.1885C2.31438 17.8608 2.31489 17.8612 2.3154 17.8617C2.31559 17.8619 2.31611 17.8623 2.31648 17.8626C2.31722 17.8632 2.31799 17.8639 2.3188 17.8645C2.32042 17.8659 2.32218 17.8674 2.32408 17.869C2.3279 17.8721 2.3323 17.8756 2.33728 17.8797C2.34726 17.8877 2.3596 17.8975 2.37436 17.9089C2.4039 17.9315 2.44314 17.9606 2.49264 17.9951C2.59166 18.0641 2.73153 18.1546 2.91662 18.2589C3.28705 18.4678 3.83683 18.7313 4.60049 18.9897C6.12844 19.5066 8.50314 19.9996 12 19.9996V18.2219C8.67872 18.2219 6.50797 17.7538 5.195 17.3096C4.53821 17.0875 4.09368 16.8704 3.82489 16.7188C3.69039 16.643 3.59943 16.5833 3.54753 16.5472C3.52157 16.5291 3.50532 16.5169 3.49824 16.5114C3.4947 16.5087 3.49344 16.5076 3.4944 16.5084C3.49488 16.5088 3.49591 16.5097 3.49749 16.5109C3.49828 16.5116 3.4992 16.5123 3.50026 16.5132C3.50079 16.5137 3.50136 16.5141 3.50195 16.5147C3.50225 16.5149 3.50273 16.5153 3.50287 16.5155C3.50336 16.5158 3.50385 16.5163 2.90911 17.1885ZM12 19.9996C15.4969 19.9996 17.8716 19.5066 19.3996 18.9897C20.1632 18.7313 20.713 18.4678 21.0834 18.2589C21.2685 18.1546 21.4084 18.0641 21.5074 17.9951C21.5569 17.9606 21.5961 17.9315 21.6256 17.9089C21.6405 17.8975 21.6527 17.8877 21.6627 17.8797C21.6677 17.8756 21.6721 17.8721 21.6759 17.869C21.6778 17.8674 21.6796 17.8659 21.6812 17.8645C21.682 17.8639 21.6828 17.8632 21.6836 17.8626C21.6839 17.8623 21.6845 17.8619 21.6846 17.8617C21.6851 17.8612 21.6856 17.8608 21.0909 17.1885C20.4962 16.5163 20.4966 16.5158 20.4972 16.5155C20.4973 16.5153 20.4977 16.5149 20.4981 16.5147C20.4986 16.5141 20.4993 16.5137 20.4997 16.5132C20.5008 16.5123 20.5017 16.5116 20.5026 16.5109C20.5041 16.5097 20.5052 16.5088 20.5056 16.5084C20.5066 16.5076 20.5054 16.5087 20.5018 16.5114C20.4947 16.5169 20.4785 16.5291 20.4525 16.5472C20.4006 16.5833 20.3096 16.643 20.1751 16.7188C19.9064 16.8704 19.4618 17.0875 18.805 17.3096C17.4921 17.7538 15.3213 18.2219 12 18.2219V19.9996ZM21.9798 17.0024L19.9594 7.77767L18.1816 8.14996L20.202 17.3747L21.9798 17.0024ZM19.9796 7.96382V4.88852H18.1614V7.96382H19.9796Z" fill="#40BFFF"/>
<path d="M4.72745 6.66629C4.22537 6.66629 3.81836 7.06426 3.81836 7.55518C3.81836 8.0461 4.22537 8.44407 4.72745 8.44407V6.66629ZM19.2729 8.44407C19.775 8.44407 20.182 8.0461 20.182 7.55518C20.182 7.06426 19.775 6.66629 19.2729 6.66629V8.44407ZM4.72745 8.44407H19.2729V6.66629H4.72745V8.44407Z" fill="#40BFFF"/>
<path d="M14.74 13.9237C14.8225 14.4079 15.2909 14.735 15.7861 14.6543C16.2814 14.5736 16.6159 14.1156 16.5334 13.6314L14.74 13.9237ZM15.6243 8.29807C15.5418 7.81383 15.0734 7.4867 14.5781 7.56741C14.0829 7.64812 13.7483 8.1061 13.8309 8.59034L15.6243 8.29807ZM16.5334 13.6314L15.6243 8.29807L13.8309 8.59034L14.74 13.9237L16.5334 13.6314Z" fill="#40BFFF"/>
<path d="M7.46661 13.6314C7.38407 14.1156 7.71864 14.5736 8.21388 14.6543C8.70913 14.735 9.17751 14.4079 9.26006 13.9237L7.46661 13.6314ZM10.1691 8.59034C10.2517 8.1061 9.91712 7.64812 9.42188 7.56741C8.92663 7.4867 8.45824 7.81383 8.3757 8.29807L10.1691 8.59034ZM9.26006 13.9237L10.1691 8.59034L8.3757 8.29807L7.46661 13.6314L9.26006 13.9237Z" fill="#40BFFF"/>
</svg>
