<svg width="32" height="32" viewBox="0 0 32 32" fill="none" xmlns="http://www.w3.org/2000/svg">
<path d="M28 14.0001H26.6667V12.6667C26.6667 12.3131 26.5262 11.974 26.2762 11.7239C26.0261 11.4739 25.687 11.3334 25.3334 11.3334C24.9797 11.3334 24.6406 11.4739 24.3906 11.7239C24.1405 11.974 24 12.3131 24 12.6667V14.0001H22.6667C22.3131 14.0001 21.9739 14.1406 21.7239 14.3906C21.4738 14.6407 21.3334 14.9797 21.3334 15.3334C21.3334 15.687 21.4738 16.0261 21.7239 16.2762C21.9739 16.5262 22.3131 16.6667 22.6667 16.6667H24V18C24 18.3537 24.1405 18.6928 24.3906 18.9428C24.6406 19.1929 24.9797 19.3334 25.3334 19.3334C25.687 19.3334 26.0261 19.1929 26.2762 18.9428C26.5262 18.6928 26.6667 18.3537 26.6667 18V16.6667H28C28.3537 16.6667 28.6928 16.5262 28.9428 16.2762C29.1929 16.0261 29.3334 15.687 29.3334 15.3334C29.3334 14.9797 29.1929 14.6407 28.9428 14.3906C28.6928 14.1406 28.3537 14.0001 28 14.0001ZM17.7334 16.2934C18.4448 15.6775 19.0154 14.9159 19.4065 14.0601C19.7976 13.2043 20 12.2744 20 11.3334C20 9.56531 19.2977 7.86961 18.0474 6.61937C16.7972 5.36913 15.1015 4.66675 13.3334 4.66675C11.5652 4.66675 9.86952 5.36913 8.61928 6.61937C7.36904 7.86961 6.66666 9.56531 6.66666 11.3334C6.66665 12.2744 6.86906 13.2043 7.26016 14.0601C7.65126 14.9159 8.22189 15.6775 8.93333 16.2934C7.06685 17.1385 5.48328 18.5034 4.37197 20.2248C3.26065 21.9461 2.66862 23.9511 2.66666 26C2.66666 26.3537 2.80713 26.6928 3.05718 26.9428C3.30723 27.1929 3.64637 27.3334 3.99999 27.3334C4.35362 27.3334 4.69275 27.1929 4.9428 26.9428C5.19285 26.6928 5.33333 26.3537 5.33333 26C5.33333 23.8783 6.17618 21.8435 7.67647 20.3432C9.17676 18.8429 11.2116 18 13.3334 18C15.4551 18 17.4899 18.8429 18.9902 20.3432C20.4905 21.8435 21.3334 23.8783 21.3334 26C21.3334 26.3537 21.4738 26.6928 21.7239 26.9428C21.9739 27.1929 22.3131 27.3334 22.6667 27.3334C23.0203 27.3334 23.3595 27.1929 23.6095 26.9428C23.8596 26.6928 24 26.3537 24 26C23.9981 23.9511 23.406 21.9461 22.2947 20.2248C21.1834 18.5034 19.5998 17.1385 17.7334 16.2934ZM13.3334 15.3334C12.5422 15.3334 11.7688 15.0988 11.111 14.6593C10.4532 14.2198 9.94056 13.595 9.63781 12.8641C9.33506 12.1332 9.25585 11.329 9.41019 10.5531C9.56453 9.77713 9.94549 9.0644 10.5049 8.50499C11.0643 7.94558 11.777 7.56462 12.553 7.41028C13.3289 7.25593 14.1332 7.33515 14.8641 7.6379C15.595 7.94065 16.2197 8.45334 16.6592 9.11114C17.0988 9.76893 17.3334 10.5423 17.3334 11.3334C17.3334 12.3943 16.9119 13.4117 16.1618 14.1618C15.4116 14.9119 14.3942 15.3334 13.3334 15.3334Z" fill="#4D90FF"/>
</svg>
