<svg width="24" height="24" viewBox="0 0 24 24" fill="none" xmlns="http://www.w3.org/2000/svg">
<path d="M8.70711 4.2929C8.31658 3.9024 7.68342 3.9024 7.29289 4.2929C6.90237 4.6834 6.90237 5.3166 7.29289 5.7071L8.70711 4.2929ZM14 11L14.7071 11.7071C15.0976 11.3166 15.0976 10.6834 14.7071 10.2929L14 11ZM7.29289 16.2929C6.90237 16.6834 6.90237 17.3166 7.29289 17.7071C7.68342 18.0976 8.31658 18.0976 8.70711 17.7071L7.29289 16.2929ZM7.29289 5.7071L13.2929 11.7071L14.7071 10.2929L8.70711 4.2929L7.29289 5.7071ZM13.2929 10.2929L7.29289 16.2929L8.70711 17.7071L14.7071 11.7071L13.2929 10.2929Z" fill="#9098B1"/>
</svg>
