<svg width="24" height="24" viewBox="0 0 24 24" fill="none" xmlns="http://www.w3.org/2000/svg">
<path d="M3.89998 7.94999V7.04999C3.40293 7.04999 3 7.45293 3 7.94999H3.89998ZM20.0996 7.94999H20.9996C20.9996 7.45293 20.5967 7.04999 20.0996 7.04999V7.94999ZM20.0996 20.1V21C20.5967 21 20.9996 20.5971 20.9996 20.1H20.0996ZM3.89998 20.1H3C3 20.5971 3.40293 21 3.89998 21V20.1ZM3.89998 8.84999H20.0996V7.04999H3.89998V8.84999ZM19.1996 7.94999V20.1H20.9996V7.94999H19.1996ZM20.0996 19.2H3.89998V21H20.0996V19.2ZM4.79996 20.1V7.94999H3V20.1H4.79996Z" fill="#40BFFF"/>
<path d="M4.13125 12.0163C3.65086 11.8887 3.15799 12.1747 3.03039 12.6551C2.90278 13.1355 3.18877 13.6284 3.66916 13.756L4.13125 12.0163ZM12 15.0377L11.769 15.9076C11.9161 15.9466 12.0706 15.9478 12.2183 15.9108L12 15.0377ZM20.3181 13.8858C20.8003 13.7653 21.0935 13.2766 20.9729 12.7944C20.8524 12.3122 20.3638 12.019 19.8816 12.1396L20.3181 13.8858ZM3.66916 13.756L11.769 15.9076L12.2311 14.1679L4.13125 12.0163L3.66916 13.756ZM12.2183 15.9108L20.3181 13.8858L19.8816 12.1396L11.7817 14.1646L12.2183 15.9108Z" fill="#40BFFF"/>
<path d="M7.76575 7.02154C7.76575 7.51859 8.16868 7.92154 8.66573 7.92154C9.16277 7.92154 9.56571 7.51859 9.56571 7.02154H7.76575ZM8.66573 3.9V3C8.16868 3 7.76575 3.40294 7.76575 3.9H8.66573ZM16.0487 3.9H16.9487C16.9487 3.40294 16.5457 3 16.0487 3V3.9ZM15.1487 6.9375C15.1487 7.43455 15.5517 7.8375 16.0487 7.8375C16.5457 7.8375 16.9487 7.43455 16.9487 6.9375H15.1487ZM9.56571 7.02154V3.9H7.76575V7.02154H9.56571ZM8.66573 4.8H16.0487V3H8.66573V4.8ZM15.1487 3.9V6.9375H16.9487V3.9H15.1487Z" fill="#40BFFF"/>
<path d="M11.9963 10.7625C11.4992 10.7625 11.0963 11.1655 11.0963 11.6625C11.0963 12.1596 11.4992 12.5625 11.9963 12.5625V10.7625ZM12.0064 12.5625C12.5035 12.5625 12.9064 12.1596 12.9064 11.6625C12.9064 11.1655 12.5035 10.7625 12.0064 10.7625V12.5625ZM11.9963 12.5625H12.0064V10.7625H11.9963V12.5625Z" fill="#40BFFF"/>
</svg>
