<svg width="24" height="24" viewBox="0 0 24 24" fill="none" xmlns="http://www.w3.org/2000/svg">
<path d="M12 13C12.5523 13 13 12.5523 13 12C13 11.4477 12.5523 11 12 11C11.4477 11 11 11.4477 11 12C11 12.5523 11.4477 13 12 13Z" fill="#262B35" stroke="#262B35" stroke-width="2" stroke-linecap="round" stroke-linejoin="round"/>
<path d="M13 6V8C14.1046 8 15 7.10457 15 6H13ZM13 6H11C11 7.10457 11.8954 8 13 8V6ZM13 6V4C11.8954 4 11 4.89543 11 6H13ZM13 6H15C15 4.89543 14.1046 4 13 4V6Z" fill="#262B35"/>
<path d="M13 20V22C14.1046 22 15 21.1046 15 20H13ZM13 20H11C11 21.1046 11.8954 22 13 22V20ZM13 20V18C11.8954 18 11 18.8954 11 20H13ZM13 20H15C15 18.8954 14.1046 18 13 18V20Z" fill="#262B35"/>
</svg>
