<svg width="24" height="24" viewBox="0 0 24 24" fill="none" xmlns="http://www.w3.org/2000/svg">
<path d="M9.625 4.00008L10.5194 3.55286C10.3178 3.14952 9.87108 2.93106 9.42888 3.0195L9.625 4.00008ZM16.375 4.00008L16.5711 3.0195C16.1289 2.93106 15.6822 3.14952 15.4806 3.55286L16.375 4.00008ZM22 5.12508L22.9701 5.36762C23.0365 5.10231 22.9912 4.82141 22.845 4.59033C22.6988 4.35924 22.4643 4.19813 22.1961 4.1445L22 5.12508ZM20.875 9.62508V10.6251C21.3339 10.6251 21.7339 10.3128 21.8451 9.86762L20.875 9.62508ZM18.625 9.62508V8.62508C18.2784 8.62508 17.9566 8.80453 17.7743 9.09935C17.5921 9.39417 17.5756 9.76231 17.7306 10.0723L18.625 9.62508ZM18.625 17.5001L17.6319 17.3832L17.6318 17.3833L18.625 17.5001ZM18.625 22.0001V23.0001C18.923 23.0001 19.2056 22.8672 19.3955 22.6375C19.5855 22.4078 19.6631 22.1054 19.6073 21.8127L18.625 22.0001ZM7.375 22.0001L6.39132 21.8202C6.33793 22.112 6.41691 22.4125 6.60691 22.6404C6.7969 22.8683 7.07829 23.0001 7.375 23.0001V22.0001ZM7.375 17.5001L8.3681 17.3829L8.36809 17.3827L7.375 17.5001ZM7.375 9.62508L8.26943 10.0723C8.42442 9.76231 8.40786 9.39417 8.22565 9.09935C8.04344 8.80453 7.72158 8.62508 7.375 8.62508V9.62508ZM5.125 9.62508L4.15486 9.86762C4.26615 10.3128 4.66614 10.6251 5.125 10.6251V9.62508ZM4 5.12508L3.80389 4.1445C3.53573 4.19813 3.30123 4.35924 3.15499 4.59033C3.00876 4.82141 2.96353 5.10231 3.02986 5.36762L4 5.12508ZM9.625 4.00008C8.73057 4.44729 8.73075 4.44765 8.73094 4.44802C8.731 4.44815 8.73119 4.44853 8.73133 4.44879C8.7316 4.44933 8.73188 4.4499 8.73219 4.45051C8.7328 4.45172 8.73349 4.45308 8.73425 4.45457C8.73576 4.45756 8.73757 4.4611 8.73968 4.46517C8.74388 4.47332 8.74927 4.48362 8.75583 4.49593C8.76895 4.52054 8.78683 4.55324 8.80949 4.5929C8.85473 4.67206 8.91946 4.7797 9.00389 4.90634C9.17162 5.15793 9.42318 5.49373 9.76164 5.83219C10.4331 6.50368 11.5162 7.25008 13 7.25008V5.25008C12.2338 5.25008 11.6294 4.87147 11.1759 4.41797C10.9518 4.19393 10.7815 3.96722 10.668 3.79694C10.6118 3.71264 10.5711 3.6445 10.546 3.60062C10.5335 3.57874 10.525 3.56311 10.5205 3.55476C10.5183 3.55059 10.5171 3.54825 10.5169 3.54789C10.5168 3.54771 10.517 3.54802 10.5174 3.54884C10.5176 3.54925 10.5179 3.54979 10.5182 3.55046C10.5184 3.5508 10.5186 3.55116 10.5188 3.55156C10.5189 3.55176 10.519 3.55209 10.5191 3.55219C10.5193 3.55252 10.5194 3.55286 9.625 4.00008ZM13 7.25008C14.4838 7.25008 15.5669 6.50368 16.2384 5.83219C16.5768 5.49373 16.8284 5.15793 16.9961 4.90634C17.0805 4.7797 17.1453 4.67206 17.1905 4.5929C17.2132 4.55324 17.231 4.52054 17.2442 4.49593C17.2507 4.48362 17.2561 4.47332 17.2603 4.46517C17.2624 4.4611 17.2642 4.45756 17.2658 4.45457C17.2665 4.45308 17.2672 4.45172 17.2678 4.45051C17.2681 4.4499 17.2684 4.44933 17.2687 4.44879C17.2688 4.44853 17.269 4.44815 17.2691 4.44802C17.2692 4.44765 17.2694 4.44729 16.375 4.00008C15.4806 3.55286 15.4807 3.55252 15.4809 3.55219C15.481 3.55209 15.4811 3.55176 15.4812 3.55156C15.4814 3.55116 15.4816 3.5508 15.4818 3.55046C15.4821 3.54979 15.4824 3.54925 15.4826 3.54884C15.483 3.54802 15.4832 3.54771 15.4831 3.54789C15.4829 3.54825 15.4817 3.55059 15.4795 3.55476C15.475 3.56311 15.4665 3.57874 15.454 3.60062C15.4289 3.6445 15.3882 3.71264 15.332 3.79694C15.2185 3.96722 15.0482 4.19393 14.8241 4.41797C14.3706 4.87147 13.7662 5.25008 13 5.25008V7.25008ZM16.1789 4.98066L21.8039 6.10566L22.1961 4.1445L16.5711 3.0195L16.1789 4.98066ZM21.0299 4.88254L19.9049 9.38254L21.8451 9.86762L22.9701 5.36762L21.0299 4.88254ZM20.875 8.62508H18.625V10.6251H20.875V8.62508ZM18.625 9.62508C17.7306 10.0723 17.7305 10.0722 17.7305 10.0721C17.7305 10.0721 17.7305 10.0721 17.7304 10.072C17.7304 10.072 17.7304 10.072 17.7304 10.072C17.7304 10.072 17.7305 10.0722 17.7307 10.0725C17.731 10.0731 17.7316 10.0743 17.7324 10.0759C17.734 10.0792 17.7367 10.0846 17.7403 10.0919C17.7475 10.1066 17.7585 10.1292 17.7728 10.1587C17.8013 10.2178 17.8428 10.3049 17.8928 10.4133C17.9932 10.6308 18.1265 10.9308 18.259 11.2621C18.3924 11.5955 18.5199 11.9479 18.6127 12.2728C18.7099 12.613 18.75 12.8586 18.75 13.0001H20.75C20.75 12.5791 20.6495 12.1215 20.5357 11.7234C20.4176 11.31 20.2639 10.8891 20.116 10.5193C19.9672 10.1475 19.8193 9.81463 19.7087 9.57516C19.6533 9.45506 19.6069 9.35751 19.5739 9.28921C19.5574 9.25504 19.5442 9.22812 19.535 9.2093C19.5304 9.19989 19.5267 9.1925 19.5241 9.18722C19.5228 9.18459 19.5217 9.18248 19.5209 9.18092C19.5206 9.18014 19.5202 9.17949 19.52 9.17898C19.5199 9.17873 19.5197 9.17851 19.5197 9.17832C19.5196 9.17823 19.5196 9.17811 19.5195 9.17807C19.5195 9.17796 19.5194 9.17787 18.625 9.62508ZM18.75 13.0001C18.75 13.1125 18.721 13.3042 18.6381 13.6108C18.5573 13.9097 18.4461 14.2463 18.3151 14.6469C18.0632 15.417 17.7493 16.3855 17.6319 17.3832L19.6181 17.617C19.7089 16.8462 19.9574 16.0591 20.216 15.2686C20.3402 14.8888 20.4712 14.4939 20.5688 14.1326C20.6644 13.779 20.75 13.3821 20.75 13.0001H18.75ZM17.6318 17.3833C17.4609 18.8375 17.46 20.0195 17.5036 20.8468C17.5254 21.2606 17.5583 21.586 17.5867 21.8127C17.6009 21.9261 17.614 22.0149 17.6239 22.0778C17.6289 22.1092 17.6332 22.1342 17.6364 22.1525C17.638 22.1617 17.6393 22.1692 17.6404 22.1751C17.6409 22.178 17.6414 22.1805 17.6418 22.1826C17.642 22.1836 17.6422 22.1845 17.6423 22.1854C17.6424 22.1858 17.6425 22.1862 17.6425 22.1865C17.6426 22.1867 17.6426 22.187 17.6426 22.1871C17.6427 22.1873 17.6427 22.1875 18.625 22.0001C19.6073 21.8127 19.6073 21.8129 19.6074 21.8131C19.6074 21.8132 19.6074 21.8134 19.6074 21.8135C19.6075 21.8138 19.6075 21.814 19.6076 21.8142C19.6076 21.8146 19.6077 21.8149 19.6077 21.8151C19.6078 21.8155 19.6078 21.8155 19.6077 21.8151C19.6076 21.8143 19.6071 21.8119 19.6064 21.8078C19.605 21.7996 19.6025 21.785 19.5992 21.7641C19.5926 21.7223 19.5826 21.6553 19.5712 21.5643C19.5484 21.3824 19.52 21.1048 19.5009 20.7416C19.4626 20.0151 19.4618 18.9471 19.6182 17.6169L17.6318 17.3833ZM18.625 21.0001H7.375V23.0001H18.625V21.0001ZM7.375 22.0001C8.35868 22.18 8.35872 22.1798 8.35876 22.1796C8.35878 22.1795 8.35882 22.1793 8.35885 22.1791C8.35891 22.1787 8.35898 22.1784 8.35905 22.178C8.3592 22.1772 8.35936 22.1763 8.35954 22.1753C8.35991 22.1732 8.36034 22.1708 8.36085 22.1679C8.36186 22.1621 8.36316 22.1546 8.3647 22.1454C8.3678 22.127 8.37189 22.1019 8.37675 22.0701C8.38647 22.0065 8.39924 21.9166 8.41315 21.8018C8.44095 21.5723 8.47331 21.2432 8.49475 20.8271C8.53762 19.9953 8.53698 18.8134 8.3681 17.3829L6.3819 17.6173C6.53589 18.9217 6.53525 19.9898 6.4974 20.7242C6.47849 21.0913 6.45031 21.3744 6.42766 21.5613C6.41634 21.6547 6.40641 21.7241 6.39974 21.7677C6.3964 21.7896 6.39387 21.805 6.39239 21.8138C6.39165 21.8182 6.39117 21.8209 6.39098 21.822C6.39089 21.8226 6.39087 21.8227 6.39092 21.8224C6.39095 21.8222 6.391 21.8219 6.39106 21.8216C6.3911 21.8214 6.39113 21.8212 6.39118 21.821C6.3912 21.8208 6.39123 21.8206 6.39125 21.8206C6.39128 21.8204 6.39132 21.8202 7.375 22.0001ZM8.36809 17.3827C8.24546 16.3451 7.93402 15.3621 7.68106 14.5856C7.54977 14.1825 7.43941 13.8513 7.35878 13.5597C7.27538 13.258 7.25 13.0866 7.25 13.0001H5.25C5.25 13.3686 5.33782 13.7552 5.43108 14.0926C5.52712 14.44 5.65687 14.8289 5.77941 15.205C6.0341 15.9869 6.28517 16.7989 6.38191 17.6175L8.36809 17.3827ZM7.25 13.0001C7.25 12.8586 7.29012 12.613 7.38731 12.2728C7.48014 11.9479 7.60763 11.5955 7.74098 11.2621C7.87349 10.9308 8.00676 10.6308 8.10718 10.4133C8.15721 10.3049 8.19866 10.2178 8.22721 10.1587C8.24148 10.1292 8.25249 10.1066 8.25972 10.0919C8.26333 10.0846 8.26599 10.0792 8.26763 10.0759C8.26845 10.0743 8.26902 10.0731 8.26932 10.0725C8.26947 10.0722 8.26956 10.072 8.26957 10.072C8.26958 10.072 8.26958 10.072 8.26955 10.072C8.26954 10.0721 8.26951 10.0721 8.2695 10.0721C8.26947 10.0722 8.26943 10.0723 7.375 9.62508C6.48057 9.17787 6.48052 9.17796 6.48047 9.17807C6.48045 9.17811 6.48039 9.17823 6.48035 9.17832C6.48025 9.17851 6.48014 9.17873 6.48002 9.17898C6.47976 9.17949 6.47944 9.18014 6.47905 9.18092C6.47827 9.18248 6.47722 9.18459 6.47592 9.18722C6.4733 9.1925 6.46964 9.19989 6.46502 9.2093C6.45576 9.22812 6.44261 9.25504 6.42611 9.28921C6.39314 9.35751 6.34669 9.45506 6.29126 9.57516C6.18074 9.81463 6.03276 10.1475 5.88402 10.5193C5.73612 10.8891 5.58236 11.31 5.46426 11.7234C5.3505 12.1215 5.25 12.5791 5.25 13.0001H7.25ZM7.375 8.62508H5.125V10.6251H7.375V8.62508ZM6.09514 9.38254L4.97015 4.88254L3.02986 5.36762L4.15486 9.86762L6.09514 9.38254ZM4.19612 6.10566L9.82112 4.98066L9.42888 3.0195L3.80389 4.1445L4.19612 6.10566Z" fill="#40BFFF"/>
</svg>
