<svg width="24" height="24" viewBox="0 0 24 24" fill="none" xmlns="http://www.w3.org/2000/svg">
<g clip-path="url(#clip0_1809_1810)">
<path d="M23.0004 5.0796L23.9849 4.90443C23.903 4.44377 23.5125 4.10153 23.0451 4.0806L23.0004 5.0796ZM24 10.6982L24.9878 10.854C25.0051 10.7443 25.004 10.6324 24.9845 10.523L24 10.6982ZM22.3748 21V22C22.8669 22 23.2858 21.6419 23.3625 21.1558L22.3748 21ZM21.25 21L20.2608 21.1465C20.3334 21.6368 20.7543 22 21.25 22V21ZM19.875 11.7131L20.8642 11.5666C20.803 11.1531 20.491 10.8213 20.082 10.7348C19.6731 10.6482 19.2534 10.8252 19.0299 11.1785L19.875 11.7131ZM13.9996 21V22C14.3425 22 14.6614 21.8244 14.8447 21.5346L13.9996 21ZM3.92913 21V20H3.92788L3.92913 21ZM2.79475 17.6342L2.22068 16.8154L2.22034 16.8156L2.79475 17.6342ZM7.60312 14.263V13.263C7.3977 13.263 7.19726 13.3263 7.02906 13.4442L7.60312 14.263ZM20.0005 5.0796C20.0005 5.59094 19.6411 5.84765 19.5565 5.90256C19.443 5.97626 19.3452 6.00433 19.3249 6.01024C19.2696 6.02633 19.2437 6.02644 19.2836 6.02197C19.3472 6.01486 19.4671 6.00784 19.6479 6.00379C19.9996 5.99591 20.4814 6.00107 20.9781 6.01219C21.4713 6.02323 21.9659 6.03983 22.3381 6.05372C22.524 6.06066 22.6788 6.06689 22.787 6.07139C22.841 6.07364 22.8834 6.07545 22.9122 6.0767C22.9266 6.07732 22.9376 6.0778 22.9449 6.07812C22.9485 6.07829 22.9513 6.07841 22.9531 6.07849C22.954 6.07853 22.9547 6.07856 22.9551 6.07858C22.9553 6.07859 22.9555 6.07859 22.9555 6.0786C22.9556 6.0786 22.9556 6.0786 22.9556 6.0786C22.9557 6.0786 22.9556 6.0786 23.0004 5.0796C23.0451 4.0806 23.0451 4.0806 23.045 4.08059C23.045 4.08059 23.0449 4.08059 23.0448 4.08059C23.0447 4.08058 23.0445 4.08057 23.0442 4.08056C23.0437 4.08053 23.0429 4.0805 23.0419 4.08045C23.0398 4.08036 23.0368 4.08023 23.0329 4.08006C23.0251 4.07971 23.0136 4.07921 22.9987 4.07857C22.9689 4.07727 22.9253 4.07541 22.8701 4.07311C22.7595 4.06852 22.6018 4.06216 22.4127 4.05511C22.0349 4.04101 21.5296 4.02403 21.0228 4.01268C20.5195 4.00142 20.0013 3.99538 19.6031 4.00429C19.4088 4.00864 19.2163 4.01701 19.0611 4.03438C18.9917 4.04216 18.8798 4.05678 18.766 4.08992C18.7164 4.10436 18.5961 4.14159 18.4674 4.22512C18.3677 4.28986 18.0005 4.55706 18.0005 5.0796H20.0005ZM22.0158 5.25476L23.0155 10.8733L24.9845 10.523L23.9849 4.90443L22.0158 5.25476ZM23.0122 10.5423L21.387 20.8442L23.3625 21.1558L24.9878 10.854L23.0122 10.5423ZM22.3748 20H21.25V22H22.3748V20ZM22.2392 20.8535L20.8642 11.5666L18.8858 11.8596L20.2608 21.1465L22.2392 20.8535ZM19.0299 11.1785L13.1545 20.4654L14.8447 21.5346L20.7201 12.2477L19.0299 11.1785ZM13.9996 20H3.92913V22H13.9996V20ZM3.92788 20C3.38219 20.0007 3 19.5818 3 19.14H1C1 20.7519 2.34481 22.002 3.93037 22L3.92788 20ZM3 19.14C3 18.8795 3.12911 18.6212 3.36916 18.4527L2.22034 16.8156C1.46214 17.3476 1 18.2091 1 19.14H3ZM3.36882 18.453L8.17719 15.0818L7.02906 13.4442L2.22068 16.8154L3.36882 18.453ZM7.60312 15.263C10.6996 15.263 13.7686 13.8245 16.0459 11.9128C18.2875 10.0311 20.0005 7.4813 20.0005 5.0796H18.0005C18.0005 6.61289 16.8163 8.65482 14.76 10.381C12.7394 12.0773 10.1097 13.263 7.60312 13.263V15.263Z" fill="#40BFFF"/>
</g>
<defs>
<clipPath id="clip0_1809_1810">
<rect width="24" height="24" fill="white"/>
</clipPath>
</defs>
</svg>
