<svg width="92" height="1024" viewBox="0 0 92 1024" fill="none" xmlns="http://www.w3.org/2000/svg">
<rect width="91.6667" height="1024" fill="#666AEC"/>
<g clip-path="url(#clip0_1222_16757)">
<path d="M23 917H69V963H23V917Z" stroke="white" stroke-opacity="0.2" stroke-width="2"/>
<path fill-rule="evenodd" clip-rule="evenodd" d="M48.08 943.59L50.67 941H41V939H50.67L48.08 936.41L49.5 935L54.5 940L49.5 945L48.08 943.59ZM53 931C54.1046 931 55 931.895 55 933V937.67L53 935.67V933H39V947H53V944.33L55 942.33V947C55 948.105 54.1046 949 53 949H39C37.89 949 37 948.1 37 947V933C37 931.89 37.89 931 39 931H53Z" fill="#D9D9D9"/>
<mask id="mask0_1222_16757" style="mask-type:alpha" maskUnits="userSpaceOnUse" x="37" y="931" width="18" height="18">
<path fill-rule="evenodd" clip-rule="evenodd" d="M48.08 943.59L50.67 941H41V939H50.67L48.08 936.41L49.5 935L54.5 940L49.5 945L48.08 943.59ZM53 931C54.1046 931 55 931.895 55 933V937.67L53 935.67V933H39V947H53V944.33L55 942.33V947C55 948.105 54.1046 949 53 949H39C37.89 949 37 948.1 37 947V933C37 931.89 37.89 931 39 931H53Z" fill="#D9D9D9"/>
</mask>
<g mask="url(#mask0_1222_16757)">
</g>
</g>
<g clip-path="url(#clip1_1222_16757)">
<path d="M22 194H70V242H22V194Z" fill="white"/>
<path fill-rule="evenodd" clip-rule="evenodd" d="M42.3999 226.4V219.2H44.7999H47.1999H49.5999V226.4H53.1999V216.692L45.9999 209.492L38.7999 216.692V226.4H42.3999ZM45.9999 206.108L57.8919 218H55.5999V228.8H47.1999V221.6H44.7999V228.8H36.3999V218H34.1079L45.9999 206.108Z" fill="#D9D9D9"/>
<mask id="mask1_1222_16757" style="mask-type:alpha" maskUnits="userSpaceOnUse" x="34" y="206" width="24" height="23">
<path fill-rule="evenodd" clip-rule="evenodd" d="M42.3999 226.4V219.2H44.7999H47.1999H49.5999V226.4H53.1999V216.692L45.9999 209.492L38.7999 216.692V226.4H42.3999ZM45.9999 206.108L57.8919 218H55.5999V228.8H47.1999V221.6H44.7999V228.8H36.3999V218H34.1079L45.9999 206.108Z" fill="#D9D9D9"/>
</mask>
<g mask="url(#mask1_1222_16757)">
</g>
</g>
<g clip-path="url(#clip2_1222_16757)">
<path d="M22 282H70V330H22V282Z" fill="white" fill-opacity="0.2"/>
<path fill-rule="evenodd" clip-rule="evenodd" d="M42.5335 304.8V307.2H40.1335V304.8H42.5335ZM47.3335 304.8V307.2H44.9335V304.8H47.3335ZM52.1335 304.8V307.2H49.7335V304.8H52.1335ZM54.5335 296.4C55.859 296.4 56.9335 297.475 56.9335 298.8V315.6C56.9335 316.926 55.859 318 54.5335 318H37.7335C36.4015 318 35.3335 316.92 35.3335 315.6V298.8C35.3335 297.475 36.408 296.4 37.7335 296.4H38.9335V294H41.3335V296.4H50.9335V294H53.3335V296.4H54.5335ZM54.5335 315.6V302.4H37.7335V315.6H54.5335ZM42.5335 309.6V312H40.1335V309.6H42.5335ZM47.3335 309.6V312H44.9335V309.6H47.3335ZM52.1335 309.6V312H49.7335V309.6H52.1335Z" fill="#D9D9D9"/>
</g>
<g clip-path="url(#clip3_1222_16757)">
<path d="M22 370H70V418H22V370Z" fill="white" fill-opacity="0.2"/>
<path fill-rule="evenodd" clip-rule="evenodd" d="M36.4 384.667H55.6C56.9255 384.667 58 385.741 58 387.067V401.467C58 402.792 56.9255 403.867 55.6 403.867H36.4C35.068 403.867 34 402.787 34 401.467V387.067C34 385.735 35.068 384.667 36.4 384.667ZM46 393.067L55.6 387.067H36.4L46 393.067ZM36.4 401.467H55.6V389.911L46 395.899L36.4 389.911V401.467Z" fill="#D9D9D9"/>
<mask id="mask2_1222_16757" style="mask-type:alpha" maskUnits="userSpaceOnUse" x="34" y="384" width="24" height="20">
<path fill-rule="evenodd" clip-rule="evenodd" d="M36.4 384.667H55.6C56.9255 384.667 58 385.741 58 387.067V401.467C58 402.792 56.9255 403.867 55.6 403.867H36.4C35.068 403.867 34 402.787 34 401.467V387.067C34 385.735 35.068 384.667 36.4 384.667ZM46 393.067L55.6 387.067H36.4L46 393.067ZM36.4 401.467H55.6V389.911L46 395.899L36.4 389.911V401.467Z" fill="#D9D9D9"/>
</mask>
<g mask="url(#mask2_1222_16757)">
</g>
</g>
<g clip-path="url(#clip4_1222_16757)">
<path d="M22 458H70V506H22V458Z" fill="white" fill-opacity="0.2"/>
<path fill-rule="evenodd" clip-rule="evenodd" d="M46.0002 471.333C48.9457 471.333 51.3335 473.721 51.3335 476.667C51.3335 479.612 48.9457 482 46.0002 482C43.0546 482 40.6668 479.612 40.6668 476.667C40.6668 473.721 43.0546 471.333 46.0002 471.333ZM46.0002 474C44.5274 474 43.3335 475.194 43.3335 476.667C43.3335 478.139 44.5274 479.333 46.0002 479.333C47.4729 479.333 48.6668 478.139 48.6668 476.667C48.6668 475.194 47.4729 474 46.0002 474ZM46.0002 483.333C49.5602 483.333 56.6668 485.107 56.6668 488.667V492.667H35.3335V488.667C35.3335 485.107 42.4402 483.333 46.0002 483.333ZM46.0002 485.867C42.0402 485.867 37.8668 487.813 37.8668 488.667V490.133H54.1335V488.667C54.1335 487.813 49.9601 485.867 46.0002 485.867Z" fill="#D9D9D9"/>
<mask id="mask3_1222_16757" style="mask-type:alpha" maskUnits="userSpaceOnUse" x="35" y="471" width="22" height="22">
<path fill-rule="evenodd" clip-rule="evenodd" d="M46.0002 471.333C48.9457 471.333 51.3335 473.721 51.3335 476.667C51.3335 479.612 48.9457 482 46.0002 482C43.0546 482 40.6668 479.612 40.6668 476.667C40.6668 473.721 43.0546 471.333 46.0002 471.333ZM46.0002 474C44.5274 474 43.3335 475.194 43.3335 476.667C43.3335 478.139 44.5274 479.333 46.0002 479.333C47.4729 479.333 48.6668 478.139 48.6668 476.667C48.6668 475.194 47.4729 474 46.0002 474ZM46.0002 483.333C49.5602 483.333 56.6668 485.107 56.6668 488.667V492.667H35.3335V488.667C35.3335 485.107 42.4402 483.333 46.0002 483.333ZM46.0002 485.867C42.0402 485.867 37.8668 487.813 37.8668 488.667V490.133H54.1335V488.667C54.1335 487.813 49.9601 485.867 46.0002 485.867Z" fill="#D9D9D9"/>
</mask>
<g mask="url(#mask3_1222_16757)">
</g>
</g>
<g clip-path="url(#clip5_1222_16757)">
<path d="M22 546H70V594H22V546Z" fill="white" fill-opacity="0.2"/>
<path fill-rule="evenodd" clip-rule="evenodd" d="M45.9999 565.2C48.6509 565.2 50.7999 567.349 50.7999 570C50.7999 572.651 48.6509 574.8 45.9999 574.8C43.3489 574.8 41.1999 572.651 41.1999 570C41.1999 567.349 43.3489 565.2 45.9999 565.2ZM45.9999 567.6C44.6744 567.6 43.5999 568.675 43.5999 570C43.5999 571.325 44.6744 572.4 45.9999 572.4C47.3254 572.4 48.3999 571.325 48.3999 570C48.3999 568.675 47.3254 567.6 45.9999 567.6ZM43.5999 582C43.2999 582 43.0479 581.784 42.9999 581.496L42.5559 578.316C41.7999 578.016 41.1519 577.608 40.5279 577.128L37.5399 578.34C37.2759 578.436 36.9519 578.34 36.8079 578.076L34.4079 573.924C34.2519 573.66 34.3239 573.336 34.5519 573.156L37.0839 571.164L36.9999 570L37.0839 568.8L34.5519 566.844C34.3239 566.664 34.2519 566.34 34.4079 566.076L36.8079 561.924C36.9519 561.66 37.2759 561.552 37.5399 561.66L40.5279 562.86C41.1519 562.392 41.7999 561.984 42.5559 561.684L42.9999 558.504C43.0479 558.216 43.2999 558 43.5999 558H48.3999C48.6999 558 48.9519 558.216 48.9999 558.504L49.4439 561.684C50.1999 561.984 50.8479 562.392 51.4719 562.86L54.4599 561.66C54.7239 561.552 55.0479 561.66 55.1919 561.924L57.5919 566.076C57.7479 566.34 57.6759 566.664 57.4479 566.844L54.9159 568.8L54.9999 570L54.9159 571.2L57.4479 573.156C57.6759 573.336 57.7479 573.66 57.5919 573.924L55.1919 578.076C55.0479 578.34 54.7239 578.448 54.4599 578.34L51.4719 577.14C50.8479 577.608 50.1999 578.016 49.4439 578.316L48.9999 581.496C48.9519 581.784 48.6999 582 48.3999 582H43.5999ZM45.0999 560.4L44.6559 563.532C43.2159 563.832 41.9439 564.6 41.0199 565.668L38.1279 564.42L37.2279 565.98L39.7599 567.84C39.2799 569.244 39.2799 570.768 39.7599 572.16L37.2159 574.032L38.1159 575.592L41.0319 574.344C41.9559 575.4 43.2159 576.168 44.6439 576.456L45.0879 579.6H46.9119L47.3559 576.468C48.7839 576.168 50.0439 575.4 50.9679 574.344L53.8839 575.592L54.7839 574.032L52.2399 572.172C52.7199 570.768 52.7199 569.244 52.2399 567.84L54.7719 565.98L53.8719 564.42L50.9799 565.668C50.0559 564.6 48.7839 563.832 47.3439 563.544L46.8999 560.4H45.0999Z" fill="#D9D9D9"/>
<mask id="mask4_1222_16757" style="mask-type:alpha" maskUnits="userSpaceOnUse" x="34" y="558" width="24" height="24">
<path fill-rule="evenodd" clip-rule="evenodd" d="M45.9999 565.2C48.6509 565.2 50.7999 567.349 50.7999 570C50.7999 572.651 48.6509 574.8 45.9999 574.8C43.3489 574.8 41.1999 572.651 41.1999 570C41.1999 567.349 43.3489 565.2 45.9999 565.2ZM45.9999 567.6C44.6744 567.6 43.5999 568.675 43.5999 570C43.5999 571.325 44.6744 572.4 45.9999 572.4C47.3254 572.4 48.3999 571.325 48.3999 570C48.3999 568.675 47.3254 567.6 45.9999 567.6ZM43.5999 582C43.2999 582 43.0479 581.784 42.9999 581.496L42.5559 578.316C41.7999 578.016 41.1519 577.608 40.5279 577.128L37.5399 578.34C37.2759 578.436 36.9519 578.34 36.8079 578.076L34.4079 573.924C34.2519 573.66 34.3239 573.336 34.5519 573.156L37.0839 571.164L36.9999 570L37.0839 568.8L34.5519 566.844C34.3239 566.664 34.2519 566.34 34.4079 566.076L36.8079 561.924C36.9519 561.66 37.2759 561.552 37.5399 561.66L40.5279 562.86C41.1519 562.392 41.7999 561.984 42.5559 561.684L42.9999 558.504C43.0479 558.216 43.2999 558 43.5999 558H48.3999C48.6999 558 48.9519 558.216 48.9999 558.504L49.4439 561.684C50.1999 561.984 50.8479 562.392 51.4719 562.86L54.4599 561.66C54.7239 561.552 55.0479 561.66 55.1919 561.924L57.5919 566.076C57.7479 566.34 57.6759 566.664 57.4479 566.844L54.9159 568.8L54.9999 570L54.9159 571.2L57.4479 573.156C57.6759 573.336 57.7479 573.66 57.5919 573.924L55.1919 578.076C55.0479 578.34 54.7239 578.448 54.4599 578.34L51.4719 577.14C50.8479 577.608 50.1999 578.016 49.4439 578.316L48.9999 581.496C48.9519 581.784 48.6999 582 48.3999 582H43.5999ZM45.0999 560.4L44.6559 563.532C43.2159 563.832 41.9439 564.6 41.0199 565.668L38.1279 564.42L37.2279 565.98L39.7599 567.84C39.2799 569.244 39.2799 570.768 39.7599 572.16L37.2159 574.032L38.1159 575.592L41.0319 574.344C41.9559 575.4 43.2159 576.168 44.6439 576.456L45.0879 579.6H46.9119L47.3559 576.468C48.7839 576.168 50.0439 575.4 50.9679 574.344L53.8839 575.592L54.7839 574.032L52.2399 572.172C52.7199 570.768 52.7199 569.244 52.2399 567.84L54.7719 565.98L53.8719 564.42L50.9799 565.668C50.0559 564.6 48.7839 563.832 47.3439 563.544L46.8999 560.4H45.0999Z" fill="#D9D9D9"/>
</mask>
<g mask="url(#mask4_1222_16757)">
</g>
</g>
<path d="M39.0164 75.7732C38.7336 75.2042 38.5669 74.4788 38.544 73.7164V64.2098C38.5669 63.4474 38.7336 62.7218 39.0164 62.153L39.39 61.4803C39.5153 61.2543 39.5856 60.948 39.5856 60.6287C39.5856 60.3094 39.5153 60.0031 39.39 59.7771L35.4272 52.6405C35.3016 52.4152 35.1314 52.2886 34.9541 52.2886C34.7767 52.2886 34.6066 52.4152 34.4809 52.6405L32.9725 55.3567C32.8478 55.5833 32.7778 55.8893 32.7778 56.2083C32.7778 56.5273 32.8478 56.8334 32.9725 57.06L35.8008 62.1528C36.0842 62.7211 36.251 63.4469 36.2737 64.2096V73.7162C36.2511 74.4785 36.0842 75.2038 35.8008 75.7716L32.9725 80.8664C32.8478 81.093 32.7778 81.3992 32.7778 81.7179C32.7778 82.037 32.8478 82.3431 32.9725 82.5697L34.4809 85.2858C34.6066 85.5111 34.7767 85.6376 34.9541 85.6376C35.1314 85.6376 35.3015 85.5111 35.4272 85.2858L39.39 78.1487C39.5153 77.9225 39.5856 77.6164 39.5856 77.2972C39.5856 76.9777 39.5153 76.6716 39.39 76.4456L39.0164 75.7732Z" fill="white"/>
<path d="M49.907 81.7659C49.5911 82.2751 49.1883 82.5756 48.7649 82.6177H43.487C43.0633 82.5756 42.6602 82.2753 42.3439 81.7659L41.9712 81.0914C41.8451 80.8668 41.6749 80.7409 41.4976 80.7409C41.3203 80.7409 41.1502 80.8668 41.0241 81.0914L37.0618 88.228C36.9367 88.4547 36.8665 88.7612 36.8665 89.0807C36.8665 89.4002 36.9367 89.7067 37.0618 89.9332L38.5702 92.6495C38.6962 92.8741 38.8662 93 39.0435 93C39.2207 93 39.3908 92.8741 39.5167 92.6495L42.3444 87.554C42.6606 87.045 43.0636 86.7448 43.4871 86.7027H48.7666C49.19 86.7445 49.5927 87.0448 49.9086 87.554L52.7375 92.6495C52.8634 92.8741 53.0333 93 53.2106 93C53.3877 93 53.5577 92.8741 53.6835 92.6495L55.192 89.9332C55.3171 89.7067 55.3873 89.4002 55.3873 89.0807C55.3873 88.7612 55.3171 88.4547 55.192 88.228L51.2268 81.091C51.101 80.8664 50.9311 80.7405 50.754 80.7405C50.5768 80.7405 50.4068 80.8664 50.281 81.091L49.907 81.7659Z" fill="white"/>
<path d="M53.3299 62.2264C53.6134 62.7958 53.7806 63.5225 53.8036 64.2862V73.7891C53.7805 74.5524 53.6133 75.2785 53.3299 75.8473L52.9562 76.5215C52.8313 76.7479 52.7612 77.0541 52.7612 77.3733C52.7612 77.6923 52.8313 77.9984 52.9562 78.2248L56.9201 85.3605C57.0458 85.5858 57.2159 85.7122 57.3932 85.7122C57.5705 85.7122 57.7406 85.5858 57.8663 85.3605L59.3747 82.6429C59.4998 82.4167 59.5702 82.1104 59.5702 81.7911C59.5702 81.4719 59.4998 81.1655 59.3747 80.9393L56.547 75.8464C56.2635 75.2776 56.0962 74.5515 56.0731 73.7882L56.0738 64.2853C56.0966 63.5216 56.2635 62.7949 56.547 62.2255L59.3747 57.1327C59.4998 56.9069 59.5702 56.6009 59.5702 56.2819C59.5702 55.9629 59.4998 55.657 59.3747 55.4312L57.8663 52.7134C57.8041 52.6016 57.7304 52.5128 57.6493 52.4523C57.568 52.3917 57.4811 52.3605 57.3932 52.3605C57.3054 52.3605 57.2183 52.3917 57.1372 52.4523C57.0559 52.5128 56.9822 52.6016 56.9201 52.7134L52.9562 59.8489C52.8313 60.0752 52.7612 60.3814 52.7612 60.7006C52.7612 61.0198 52.8313 61.3259 52.9562 61.5524L53.3299 62.2264Z" fill="white"/>
<path d="M42.4394 56.2338C42.7551 55.7239 43.1581 55.4234 43.5816 55.382H48.86C49.2834 55.4241 49.6862 55.7245 50.0022 56.2338L50.3767 56.9078C50.4387 57.0197 50.5124 57.1084 50.5935 57.169C50.6746 57.2295 50.7615 57.2606 50.8493 57.2606C50.9372 57.2606 51.0242 57.2295 51.1052 57.169C51.1863 57.1084 51.26 57.0197 51.3222 56.9078L55.2854 49.7708C55.4105 49.5443 55.4807 49.2378 55.4807 48.9183C55.4807 48.5988 55.4105 48.2923 55.2854 48.0657L53.777 45.3527C53.6515 45.1269 53.4813 45 53.3038 45C53.1263 45 52.9562 45.1269 52.8306 45.3527L50.0023 50.4456C49.6863 50.9549 49.2835 51.2553 48.8602 51.2973H43.5816C43.1581 51.256 42.7551 50.9555 42.4394 50.4456L39.611 45.3527C39.4851 45.1282 39.315 45.0023 39.1378 45.0023C38.9606 45.0023 38.7906 45.1282 38.6646 45.3527L37.1562 48.0689C37.0311 48.2955 36.9609 48.6019 36.9609 48.9214C36.9609 49.2408 37.0311 49.5472 37.1562 49.7738L41.1186 56.9076C41.2441 57.1335 41.4143 57.2604 41.5918 57.2604C41.7693 57.2604 41.9395 57.1335 42.065 56.9076L42.4394 56.2338Z" fill="white"/>
<defs>
<clipPath id="clip0_1222_16757">
<rect width="48" height="48" fill="white" transform="translate(22 916)"/>
</clipPath>
<clipPath id="clip1_1222_16757">
<rect width="48" height="48" fill="white" transform="translate(22 194)"/>
</clipPath>
<clipPath id="clip2_1222_16757">
<rect width="48" height="48" fill="white" transform="translate(22 282)"/>
</clipPath>
<clipPath id="clip3_1222_16757">
<rect width="48" height="48" fill="white" transform="translate(22 370)"/>
</clipPath>
<clipPath id="clip4_1222_16757">
<rect width="48" height="48" fill="white" transform="translate(22 458)"/>
</clipPath>
<clipPath id="clip5_1222_16757">
<rect width="48" height="48" fill="white" transform="translate(22 546)"/>
</clipPath>
</defs>
</svg>
