<svg width="24" height="24" viewBox="0 0 24 24" fill="none" xmlns="http://www.w3.org/2000/svg">
<path d="M11.9986 11.3663C11.1128 11.3663 10.3945 10.6241 10.3945 9.70871H8.65259C8.65259 11.6182 10.1507 13.1663 11.9986 13.1663V11.3663ZM10.3945 9.70871V6.45757H8.65259V9.70871H10.3945ZM10.3945 6.45757C10.3945 5.54219 11.1128 4.8 11.9986 4.8V3C10.1507 3 8.65259 4.54808 8.65259 6.45757H10.3945ZM11.9986 4.8C12.8845 4.8 13.6027 5.54219 13.6027 6.45757H15.3447C15.3447 4.54808 13.8465 3 11.9986 3V4.8ZM13.6027 6.45757V9.70871H15.3447V6.45757H13.6027ZM13.6027 9.70871C13.6027 10.6241 12.8845 11.3663 11.9986 11.3663V13.1663C13.8465 13.1663 15.3447 11.6182 15.3447 9.70871H13.6027Z" fill="#9098B1"/>
<path d="M12.8711 17.0625C12.8711 16.5654 12.4811 16.1625 12.0001 16.1625C11.5191 16.1625 11.1292 16.5654 11.1292 17.0625H12.8711ZM11.1292 20.1C11.1292 20.5971 11.5191 21 12.0001 21C12.4811 21 12.8711 20.5971 12.8711 20.1H11.1292ZM11.1292 17.0625V20.1H12.8711V17.0625H11.1292Z" fill="#9098B1"/>
<path d="M6.99194 9.975C6.99194 9.47794 6.60199 9.075 6.12097 9.075C5.63995 9.075 5.25 9.47794 5.25 9.975H6.99194ZM18.75 9.975C18.75 9.47794 18.3601 9.075 17.879 9.075C17.398 9.075 17.0081 9.47794 17.0081 9.975H18.75ZM5.25 9.975C5.25 13.8275 8.2718 16.95 12 16.95V15.15C9.23383 15.15 6.99194 12.8334 6.99194 9.975H5.25ZM12 16.95C15.7282 16.95 18.75 13.8275 18.75 9.975H17.0081C17.0081 12.8334 14.7662 15.15 12 15.15V16.95Z" fill="#9098B1"/>
</svg>
