<svg width="24" height="24" viewBox="0 0 24 24" fill="none" xmlns="http://www.w3.org/2000/svg">
<path d="M3.9 6.03751C3.40294 6.03751 3 6.44045 3 6.93751C3 7.43456 3.40294 7.83751 3.9 7.83751V6.03751ZM20.1 7.83751C20.5971 7.83751 21 7.43456 21 6.93751C21 6.44045 20.5971 6.03751 20.1 6.03751V7.83751ZM3.9 7.83751H20.1V6.03751H3.9V7.83751Z" fill="#9098B1"/>
<path d="M8.9625 3C8.46544 3 8.0625 3.40294 8.0625 3.9C8.0625 4.39706 8.46544 4.8 8.9625 4.8V3ZM15.0375 4.8C15.5346 4.8 15.9375 4.39706 15.9375 3.9C15.9375 3.40294 15.5346 3 15.0375 3V4.8ZM8.9625 4.8H15.0375V3H8.9625V4.8Z" fill="#9098B1"/>
<path d="M5.9249 6.93751V6.03751C5.42785 6.03751 5.0249 6.44045 5.0249 6.93751H5.9249ZM18.0749 6.93751H18.9749C18.9749 6.44045 18.572 6.03751 18.0749 6.03751V6.93751ZM18.0749 20.1V21C18.572 21 18.9749 20.5971 18.9749 20.1H18.0749ZM5.9249 20.1H5.0249C5.0249 20.5971 5.42785 21 5.9249 21V20.1ZM5.9249 7.83751H18.0749V6.03751H5.9249V7.83751ZM17.1749 6.93751V20.1H18.9749V6.93751H17.1749ZM18.0749 19.2H5.9249V21H18.0749V19.2ZM6.8249 20.1V6.93751H5.0249V20.1H6.8249Z" fill="#9098B1"/>
</svg>
