<svg width="24" height="24" viewBox="0 0 24 24" fill="none" xmlns="http://www.w3.org/2000/svg">
<path d="M11.5 21.0909L10.8591 21.7157C11.0257 21.8972 11.2575 22 11.5 22C11.7425 22 11.9743 21.8972 12.1409 21.7157L11.5 21.0909ZM17.2353 9.97955C17.2353 10.7301 16.9046 11.752 16.3014 12.9428C15.711 14.1084 14.9137 15.3323 14.1011 16.457C13.2908 17.5785 12.4784 18.583 11.8676 19.3082C11.5626 19.6703 11.3089 19.9615 11.1321 20.1615C11.0437 20.2615 10.9746 20.3385 10.928 20.3901C10.9047 20.4159 10.8871 20.4354 10.8754 20.4482C10.8696 20.4545 10.8653 20.4593 10.8626 20.4623C10.8612 20.4637 10.8602 20.4648 10.8597 20.4655C10.8594 20.4658 10.8592 20.466 10.8591 20.4661C10.859 20.4662 10.859 20.4662 10.859 20.4662C10.859 20.4662 10.8591 20.4661 11.5 21.0909C12.1409 21.7157 12.141 21.7156 12.1412 21.7155C12.1412 21.7154 12.1414 21.7152 12.1415 21.7151C12.1418 21.7147 12.1423 21.7143 12.1428 21.7137C12.1438 21.7126 12.1452 21.7111 12.147 21.7091C12.1506 21.7051 12.1558 21.6995 12.1625 21.6921C12.1759 21.6774 12.1954 21.6558 12.2206 21.6279C12.271 21.5721 12.3441 21.4905 12.4366 21.3859C12.6217 21.1765 12.885 20.8743 13.2004 20.4998C13.8304 19.7519 14.6725 18.7109 15.5166 17.5427C16.3583 16.3778 17.2154 15.068 17.8659 13.784C18.5035 12.5253 19 11.1818 19 9.97955H17.2353ZM11.5 21.0909C12.1409 20.4661 12.141 20.4662 12.141 20.4662C12.141 20.4662 12.141 20.4662 12.1409 20.4661C12.1408 20.466 12.1406 20.4658 12.1404 20.4655C12.1398 20.4648 12.1388 20.4637 12.1374 20.4623C12.1347 20.4593 12.1304 20.4545 12.1246 20.4482C12.1129 20.4354 12.0953 20.4159 12.072 20.3901C12.0254 20.3385 11.9563 20.2615 11.8679 20.1615C11.6911 19.9615 11.4374 19.6703 11.1324 19.3082C10.5216 18.583 9.70924 17.5785 8.89894 16.457C8.08626 15.3323 7.28899 14.1084 6.69859 12.9428C6.09541 11.752 5.76471 10.7301 5.76471 9.97955H4C4 11.1818 4.4965 12.5253 5.13413 13.784C5.78454 15.068 6.64169 16.3778 7.48341 17.5427C8.32753 18.7109 9.16958 19.7519 9.79959 20.4998C10.115 20.8743 10.3783 21.1765 10.5634 21.3859C10.6559 21.4905 10.729 21.5721 10.7794 21.6279C10.8046 21.6558 10.8241 21.6774 10.8375 21.6921C10.8442 21.6995 10.8494 21.7051 10.853 21.7091C10.8548 21.7111 10.8562 21.7126 10.8572 21.7137C10.8577 21.7143 10.8582 21.7147 10.8585 21.7151C10.8586 21.7152 10.8588 21.7154 10.8588 21.7155C10.859 21.7156 10.8591 21.7157 11.5 21.0909ZM5.76471 9.97955C5.76471 6.54456 8.36207 3.81818 11.5 3.81818V2C7.32764 2 4 5.60316 4 9.97955H5.76471ZM11.5 3.81818C14.6378 3.81818 17.2353 6.5456 17.2353 9.97955H19C19 5.6044 15.6725 2 11.5 2V3.81818Z" fill="#40BFFF"/>
<path d="M12.3234 8.81817C12.3234 9.81139 11.5457 10.5909 10.6175 10.5909C9.68934 10.5909 8.91162 9.81139 8.91162 8.81817C8.91162 7.82494 9.68934 7.04544 10.6175 7.04544C11.5457 7.04544 12.3234 7.82494 12.3234 8.81817Z" fill="#40BFFF" stroke="#40BFFF"/>
</svg>
