<svg width="14" height="14" viewBox="0 0 14 14" fill="none" xmlns="http://www.w3.org/2000/svg">
<path fill-rule="evenodd" clip-rule="evenodd" d="M12.6 7C12.6 3.90721 10.0928 1.4 7 1.4C3.90721 1.4 1.4 3.90721 1.4 7C1.4 10.0928 3.90721 12.6 7 12.6C8.48521 12.6 9.90959 12.01 10.9598 10.9598C12.01 9.90959 12.6 8.48521 12.6 7ZM14 7C14 10.866 10.866 14 7 14C5.14348 14 3.36301 13.2625 2.05025 11.9497C0.737498 10.637 0 8.85652 0 7C0 5.14348 0.737498 3.36301 2.05025 2.05025C3.36301 0.737498 5.14348 0 7 0C8.85652 0 10.637 0.737498 11.9497 2.05025C13.2625 3.36301 14 5.14348 14 7ZM5.6 5.25C5.6 5.81 5.11 6.3 4.55 6.3C3.99 6.3 3.5 5.81 3.5 5.25C3.5 4.69 3.99 4.2 4.55 4.2C5.11 4.2 5.6 4.69 5.6 5.25ZM10.5 5.25C10.5 5.81 10.01 6.3 9.45 6.3C8.89 6.3 8.4 5.81 8.4 5.25C8.4 4.69 8.89 4.2 9.45 4.2C10.01 4.2 10.5 4.69 10.5 5.25ZM7 10.661C5.775 10.661 4.697 10.15 4.067 9.394L5.061 8.4C5.376 8.904 6.125 9.261 7 9.261C7.875 9.261 8.624 8.904 8.939 8.4L9.933 9.394C9.303 10.15 8.225 10.661 7 10.661Z" fill="#D9D9D9"/>
<mask id="mask0_1222_16614" style="mask-type:alpha" maskUnits="userSpaceOnUse" x="0" y="0" width="14" height="14">
<path fill-rule="evenodd" clip-rule="evenodd" d="M12.6 7C12.6 3.90721 10.0928 1.4 7 1.4C3.90721 1.4 1.4 3.90721 1.4 7C1.4 10.0928 3.90721 12.6 7 12.6C8.48521 12.6 9.90959 12.01 10.9598 10.9598C12.01 9.90959 12.6 8.48521 12.6 7ZM14 7C14 10.866 10.866 14 7 14C5.14348 14 3.36301 13.2625 2.05025 11.9497C0.737498 10.637 0 8.85652 0 7C0 5.14348 0.737498 3.36301 2.05025 2.05025C3.36301 0.737498 5.14348 0 7 0C8.85652 0 10.637 0.737498 11.9497 2.05025C13.2625 3.36301 14 5.14348 14 7ZM5.6 5.25C5.6 5.81 5.11 6.3 4.55 6.3C3.99 6.3 3.5 5.81 3.5 5.25C3.5 4.69 3.99 4.2 4.55 4.2C5.11 4.2 5.6 4.69 5.6 5.25ZM10.5 5.25C10.5 5.81 10.01 6.3 9.45 6.3C8.89 6.3 8.4 5.81 8.4 5.25C8.4 4.69 8.89 4.2 9.45 4.2C10.01 4.2 10.5 4.69 10.5 5.25ZM7 10.661C5.775 10.661 4.697 10.15 4.067 9.394L5.061 8.4C5.376 8.904 6.125 9.261 7 9.261C7.875 9.261 8.624 8.904 8.939 8.4L9.933 9.394C9.303 10.15 8.225 10.661 7 10.661Z" fill="#D9D9D9"/>
</mask>
<g mask="url(#mask0_1222_16614)">
</g>
</svg>
