<svg width="24" height="24" viewBox="0 0 24 24" fill="none" xmlns="http://www.w3.org/2000/svg">
<path d="M17.6699 8.88367C18.0674 8.50024 18.0674 7.87858 17.6699 7.49514C17.2724 7.11171 16.628 7.11171 16.2305 7.49514L17.6699 8.88367ZM6.33101 17.0445C5.93351 17.4279 5.93352 18.0496 6.33101 18.433C6.7285 18.8164 7.37295 18.8164 7.77045 18.433L6.33101 17.0445ZM16.2305 7.49514L6.33101 17.0445L7.77045 18.433L17.6699 8.88367L16.2305 7.49514Z" fill="#9098B1"/>
<path d="M7.76953 7.49514C7.37203 7.11171 6.72758 7.11171 6.33008 7.49514C5.93259 7.87858 5.93259 8.50024 6.33008 8.88367L7.76953 7.49514ZM16.2296 18.433C16.6271 18.8164 17.2715 18.8164 17.669 18.433C18.0665 18.0496 18.0665 17.4279 17.669 17.0445L16.2296 18.433ZM6.33008 8.88367L16.2296 18.433L17.669 17.0445L7.76953 7.49514L6.33008 8.88367Z" fill="#9098B1"/>
</svg>
