<svg width="24" height="24" viewBox="0 0 24 24" fill="none" xmlns="http://www.w3.org/2000/svg">
<path d="M15.2929 19.7071C15.6834 20.0976 16.3166 20.0976 16.7071 19.7071C17.0976 19.3166 17.0976 18.6834 16.7071 18.2929L15.2929 19.7071ZM10 13L9.29289 12.2929C8.90237 12.6834 8.90237 13.3166 9.29289 13.7071L10 13ZM16.7071 7.70711C17.0976 7.31658 17.0976 6.68342 16.7071 6.29289C16.3166 5.90237 15.6834 5.90237 15.2929 6.29289L16.7071 7.70711ZM16.7071 18.2929L10.7071 12.2929L9.29289 13.7071L15.2929 19.7071L16.7071 18.2929ZM10.7071 13.7071L16.7071 7.70711L15.2929 6.29289L9.29289 12.2929L10.7071 13.7071Z" fill="#9098B1"/>
</svg>
